<?xml version="1.0" encoding="utf-8"?><svg xml:space="preserve" viewBox="0 0 100 100" y="0" x="0" xmlns="http://www.w3.org/2000/svg" id="圖層_1" version="1.1" width="200px" height="200px" xmlns:xlink="http://www.w3.org/1999/xlink" style="width:100%;height:100%;background-size:initial;background-repeat-y:initial;background-repeat-x:initial;background-position-y:initial;background-position-x:initial;background-origin:initial;background-image:initial;background-color:rgb(255, 255, 255);background-clip:initial;background-attachment:initial;animation-play-state:paused" ><g class="ldl-scale" style="transform-origin:50% 50%;transform:rotate(0deg) scale(0.8, 0.8);animation-play-state:paused" ><circle stroke-width="3.5" fill="none" stroke="#e0e0e0" stroke-miterlimit="10" r="33.625" cy="50" cx="50" style="stroke:rgb(224, 224, 224);animation-play-state:paused" ></circle>
<path stroke-miterlimit="10" stroke="#e15b64" fill="none" stroke-width="12" d="M50 16.375c18.571 0 33.625 15.054 33.625 33.625S68.571 83.625 50 83.625 16.375 68.571 16.375 50c0-9.235 3.723-17.601 9.751-23.678" style="stroke:rgb(225, 91, 100);animation-play-state:paused" ></path>
<path stroke-miterlimit="10" stroke-width="3.5" stroke="#333" fill="none" d="M41.356 51.958h0a3.214 3.214 0 0 1-3.214-3.214v-5.571a3.214 3.214 0 0 1 3.214-3.214h0a3.214 3.214 0 0 1 3.214 3.214v5.571a3.213 3.213 0 0 1-3.214 3.214z" style="stroke:rgb(51, 51, 51);animation-play-state:paused" ></path>
<path stroke-miterlimit="10" stroke-width="3.5" stroke="#333" fill="none" d="M58.644 60.021h0a3.214 3.214 0 0 0 3.214-3.214v-5.571a3.214 3.214 0 0 0-3.214-3.214h0a3.214 3.214 0 0 0-3.214 3.214v5.571a3.213 3.213 0 0 0 3.214 3.214z" style="stroke:rgb(51, 51, 51);animation-play-state:paused" ></path>
<path d="M55.804 37.02l-12 25.96" stroke-miterlimit="10" stroke-width="3.5" stroke="#333" fill="none" style="stroke:rgb(51, 51, 51);animation-play-state:paused" ></path>
<metadata xmlns:d="https://loading.io/stock/" style="animation-play-state:paused" ><d:name style="animation-play-state:paused" >87%</d:name>


<d:tags style="animation-play-state:paused" >87,percentage,progress,loading,status,bar,curved,circular,downloading,process</d:tags>


<d:license style="animation-play-state:paused" >by</d:license>


<d:slug style="animation-play-state:paused" >92pgi3</d:slug></metadata></g><!-- generated by https://loading.io/ --></svg>