<?xml version="1.0" encoding="utf-8"?>
<!-- Uploaded to: SVG Repo, www.svgrepo.com, Generator: SVG Repo Mixer Tools -->
<svg width="800px" height="800px" viewBox="0 0 64 64" xmlns="http://www.w3.org/2000/svg" xmlns:xlink="http://www.w3.org/1999/xlink" aria-hidden="true" role="img" class="iconify iconify--emojione" preserveAspectRatio="xMidYMid meet">
<path d="M32 2C18.9 2 7.8 10.4 3.7 22h56.6C56.2 10.4 45.1 2 32 2z" fill="#ffe62e">
</path>
<path d="M32 62c13.1 0 24.2-8.3 28.3-20H3.7C7.8 53.7 18.9 62 32 62z" fill="#ed4c5c">
</path>
<path d="M3.7 22C2.6 25.1 2 28.5 2 32s.6 6.9 1.7 10h56.6c1.1-3.1 1.7-6.5 1.7-10s-.6-6.9-1.7-10H3.7z" fill="#2a5f9e">
</path>
<g fill="#ffffff">
<path d="M34.6 27.1l1 1.1l-.2-1.5l1.3-.6l-1.4-.3l-.2-1.4l-.7 1.3l-1.5-.3l1 1.1l-.7 1.3z">
</path>
<path d="M29.2 27.2l1.3.6l-.7-1.3l1-1.1l-1.5.3l-.7-1.3l-.2 1.5l-1.5.2l1.4.7l-.1 1.4z">
</path>
<path d="M24.2 29l1.5.2l-1.2-1l.5-1.3l-1.3.7l-1.2-1l.5 1.5l-1.3.7l1.5.1l.4 1.5z">
</path>
<path d="M20.2 32.5l1.5-.4l-1.5-.5v-1.5l-.9 1.2l-1.5-.5l.9 1.2l-.8 1.1l1.4-.4l1 1.2z">
</path>
<path d="M17.9 37l1.2-.9l-1.6.1l-.5-1.4l-.4 1.4H15l1.3.8l-.4 1.4l1.2-.9l1.4.8z">
</path>
<path d="M46.1 36.8l-.5 1.4l1.3-.9l1.2.9l-.4-1.4L49 36h-1.6l-.4-1.3l-.5 1.3h-1.6z">
</path>
<path d="M43.6 32.3l.1 1.4l.9-1.1l1.4.3l-.9-1.1l.9-1.2l-1.4.5l-1-1.1v1.4l-1.4.5z">
</path>
<path d="M39.6 28.9l.6 1.4l.4-1.5l1.5-.1l-1.3-.7l.4-1.5l-1.2 1l-1.3-.7l.6 1.3l-1.2 1z">
</path>
</g>
</svg>