<svg width="239" height="34" viewBox="0 0 239 34" fill="none" xmlns="http://www.w3.org/2000/svg">
<path d="M54.8152 21.095C54.5818 22.5438 54.2733 23.9795 53.8909 25.3963H40.6665V24.4721C42.8706 24.2943 43.1194 24.1166 43.1194 21.9482V11.9948C43.1194 9.71971 42.8706 9.61307 41.022 9.47088V8.54663H53.251C53.2866 9.00875 53.3933 10.8217 53.4999 12.4569L52.5756 12.5991C52.3268 11.7104 51.9713 10.8217 51.5091 10.3596C51.047 9.89745 50.3715 9.71971 48.914 9.71971H47.6698C46.7099 9.71971 46.6033 9.75526 46.6033 10.644V16.1183H48.3452C50.5137 16.1183 50.8692 15.9761 51.2247 14.1632H52.149V19.3887H51.2247C50.8692 17.5047 50.5493 17.4336 48.3452 17.4336H46.6033V21.8771C46.6033 23.0857 46.7099 23.7256 47.2432 24.01C47.7764 24.2943 48.5941 24.2588 49.5894 24.2588C50.9048 24.2588 51.8291 24.0811 52.469 23.4412C53.0689 22.6711 53.5594 21.8218 53.9265 20.9173L54.8152 21.095Z" fill="#FFFCE9"/>
<path d="M55.1704 25.3964V24.5788C56.699 24.33 56.8412 24.2234 56.8412 22.5526V10.6441C56.8412 9.07995 56.699 9.00886 55.2771 8.83112V8.08461C56.9077 7.88633 58.523 7.57754 60.1118 7.16037V22.5171C60.1118 24.2589 60.254 24.3655 61.8537 24.5433V25.3609L55.1704 25.3964Z" fill="#FFFCE9"/>
<path d="M81.0506 20.9885C80.6714 22.3984 80.1842 23.777 79.5931 25.1121C78.0077 25.496 76.3882 25.7222 74.7583 25.7875C67.8617 25.7875 64.9822 21.3084 64.9822 17.1849C64.9822 11.8527 69.0704 8.15573 75.2916 8.15573C76.891 8.19538 78.4793 8.43421 80.0196 8.86669C80.2329 10.2886 80.4462 11.4972 80.624 13.1324L79.6642 13.3102C78.811 10.2175 76.8202 9.32881 74.8294 9.32881C71.0612 9.32881 68.9993 12.8836 68.9993 16.7228C68.9993 21.4862 71.5589 24.6499 75.0783 24.6499C77.2112 24.6499 78.8465 23.2636 80.1618 20.6686L81.0506 20.9885Z" fill="#FFFCE9"/>
<path d="M88.2672 25.3964V24.5788C89.5114 24.401 89.5825 24.2233 89.5825 22.8014V18.2157C89.5825 16.225 88.7294 15.5496 87.734 15.5496C87.041 15.5532 86.3724 15.8055 85.8498 16.2606V22.8014C85.8498 24.2233 85.9565 24.401 87.0585 24.5788V25.3964H80.9084V24.5788C82.4015 24.4366 82.5437 24.3299 82.5437 22.6947V10.6085C82.5437 9.0088 82.4371 9.0088 81.0862 8.86661V8.12011C82.6901 7.90123 84.2805 7.59267 85.8498 7.19586V15.3363C86.7386 14.4476 88.0184 13.6656 89.2981 13.6656C91.5733 13.6656 92.8887 15.123 92.8887 17.9669V22.7303C92.8887 24.401 93.0309 24.401 94.3817 24.6143V25.4319L88.2672 25.3964Z" fill="#FFFCE9"/>
<path d="M95.0217 25.3963V24.5787C96.5148 24.401 96.6926 24.2943 96.6926 22.4458V17.327C96.6926 15.6207 96.5148 15.5496 95.2706 15.3363V14.5542C96.8683 14.3698 98.4491 14.0608 99.9987 13.63V22.4458C99.9987 24.2232 100.141 24.3654 101.705 24.5787V25.3963H95.0217ZM96.3015 10.1818C96.3035 9.94132 96.3529 9.70357 96.447 9.48219C96.541 9.26082 96.6778 9.06018 96.8496 8.89176C97.0213 8.72335 97.2246 8.59047 97.4477 8.50075C97.6709 8.41103 97.9096 8.36622 98.1501 8.36889C98.6211 8.35174 99.0797 8.5215 99.426 8.84114C99.7723 9.16078 99.9781 9.60438 99.9987 10.0752V10.1818C99.9967 10.4223 99.9472 10.6601 99.8532 10.8815C99.7592 11.1028 99.6223 11.3035 99.4506 11.4719C99.2789 11.6403 99.0756 11.7732 98.8525 11.8629C98.6293 11.9526 98.3906 11.9974 98.1501 11.9948C97.668 11.988 97.2071 11.7959 96.8629 11.4583C96.5187 11.1208 96.3176 10.6637 96.3015 10.1818Z" fill="#FFFCE9"/>
<path d="M113.614 14.1987C113.472 14.6253 112.974 15.514 112.512 15.7984L111.019 15.6917C111.481 16.2381 111.733 16.9313 111.73 17.6469C111.73 20.3485 109.312 21.6993 106.788 21.6993C106.359 21.6871 105.931 21.6396 105.509 21.5571C105.302 21.7389 105.175 21.9939 105.153 22.2681C105.153 22.6947 105.58 23.2634 106.824 23.2634C107.642 23.2634 108.388 23.2279 109.206 23.2279C110.805 23.2279 113.187 23.6544 113.187 26.3916C113.187 29.3421 109.703 31.7238 106.255 31.7238C102.913 31.7238 101.42 30.0175 101.42 28.5601C101.42 27.9913 101.705 27.5647 102.238 27.1381C102.868 26.6788 103.52 26.2517 104.193 25.8584C103.391 25.6356 102.697 25.1307 102.238 24.4365C101.98 24.0217 101.856 23.5378 101.883 23.0501C102.868 22.6694 103.764 22.0884 104.513 21.3438C103.772 21.127 103.122 20.6716 102.666 20.0481C102.21 19.4247 101.972 18.6681 101.989 17.8957C101.989 14.9808 104.691 13.6299 107.002 13.6299H107.037C108.006 13.6336 108.959 13.8779 109.81 14.3409C111.161 14.2698 112.547 14.1276 113.578 14.021L113.614 14.1987ZM106.966 25.9295C105.722 25.9295 105.189 26.0717 104.798 26.4627C104.444 26.8137 104.229 27.2809 104.193 27.778C104.193 29.0222 105.473 30.2663 107.535 30.2663C109.49 30.2663 110.663 29.1999 110.663 27.8135C110.663 27.406 110.515 27.0124 110.247 26.7053C109.979 26.3982 109.609 26.1984 109.206 26.1428C108.468 25.998 107.718 25.9266 106.966 25.9295ZM106.788 14.5542C106.006 14.5542 105.26 15.5495 105.26 17.4336C105.26 19.2465 105.864 20.704 107.037 20.704C108.068 20.704 108.601 19.6731 108.601 17.7535C108.601 16.0827 108.033 14.5542 106.788 14.5542Z" fill="#FFFCE9"/>
<path d="M127.087 24.792C126.341 24.8987 125.594 25.0409 124.741 25.2186C123.888 25.3963 123.106 25.5741 122.324 25.7518L122.11 25.5741V24.01C121.708 24.3608 121.28 24.6816 120.831 24.9698C120.171 25.4582 119.376 25.7313 118.555 25.7518C116.387 25.7518 115.143 24.3299 115.143 22.0548V16.6516C115.143 15.4429 115 15.3363 114.325 15.1586L113.721 14.9808V14.2343C114.361 14.1988 115.178 14.1277 116.031 14.0566C116.885 13.9855 117.809 13.8788 118.52 13.7722C118.484 14.8742 118.449 16.1894 118.449 17.6825V21.4505C118.449 23.1213 119.338 23.7256 120.226 23.7256C120.573 23.7466 120.92 23.6941 121.244 23.5716C121.569 23.449 121.864 23.2593 122.11 23.0146V16.6871C122.11 15.4785 121.968 15.3007 121.293 15.1586L120.511 14.9808V14.2343C121.257 14.1988 122.181 14.1277 123.106 14.0566C123.892 14.0011 124.675 13.9062 125.452 13.7722V22.197C125.452 23.5834 125.594 23.7967 126.554 23.9033L127.123 23.9744L127.087 24.792ZM115.569 10.2174C115.584 9.75397 115.777 9.31412 116.108 8.98959C116.439 8.66506 116.883 8.48091 117.347 8.47556C117.804 8.46141 118.248 8.6295 118.582 8.94282C118.915 9.25615 119.11 9.68905 119.124 10.1463C119.138 10.6036 118.97 11.0477 118.657 11.381C118.344 11.7144 117.911 11.9096 117.453 11.9237H117.347C116.889 11.9201 116.449 11.7413 116.119 11.424C115.788 11.1067 115.592 10.675 115.569 10.2174ZM120.902 10.2174C120.902 9.75567 121.086 9.31306 121.413 8.98656C121.739 8.66007 122.182 8.47631 122.644 8.47556C123.106 8.47556 123.549 8.65907 123.875 8.98573C124.202 9.31239 124.386 9.75544 124.386 10.2174C124.386 10.6794 124.202 11.1224 123.875 11.4491C123.549 11.7757 123.106 11.9592 122.644 11.9592H122.608C122.16 11.9273 121.739 11.7325 121.425 11.4116C121.111 11.0908 120.924 10.666 120.902 10.2174Z" fill="#FFFCE9"/>
<path d="M127.656 25.3963V24.5787C129.149 24.401 129.327 24.2943 129.327 22.4458V17.327C129.327 15.6207 129.149 15.5496 127.905 15.3363V14.5542C129.502 14.3698 131.083 14.0608 132.633 13.63V22.4458C132.633 24.2232 132.775 24.3654 134.339 24.5787V25.3963H127.656ZM128.936 10.1818C128.938 9.94132 128.987 9.70357 129.081 9.48219C129.175 9.26082 129.312 9.06018 129.484 8.89176C129.655 8.72335 129.859 8.59047 130.082 8.50075C130.305 8.41103 130.544 8.36622 130.784 8.36889C131.255 8.35174 131.714 8.5215 132.06 8.84114C132.406 9.16078 132.612 9.60438 132.633 10.0752V10.1818C132.631 10.4223 132.581 10.6601 132.487 10.8815C132.393 11.1028 132.256 11.3035 132.085 11.4719C131.913 11.6403 131.71 11.7732 131.487 11.8629C131.263 11.9526 131.025 11.9974 130.784 11.9948H130.749C130.27 11.9867 129.814 11.7931 129.476 11.4549C129.137 11.1166 128.944 10.6601 128.936 10.1818Z" fill="#FFFCE9"/>
<path d="M139.814 16.3315C140.738 14.7319 141.769 13.5944 142.729 13.5944C143.162 13.5707 143.586 13.7175 143.912 14.0032C144.238 14.289 144.438 14.6909 144.471 15.1229V15.194C144.482 15.6069 144.365 16.0131 144.136 16.3568C143.907 16.7005 143.577 16.9649 143.191 17.1136C143.057 17.1661 142.912 17.1839 142.769 17.1653C142.626 17.1466 142.49 17.0922 142.374 17.007C142.051 16.6796 141.623 16.4779 141.165 16.4382C140.667 16.4382 140.134 16.7937 139.708 17.789V22.6235C139.708 24.2232 139.85 24.3298 141.876 24.5076V25.3252H134.766V24.5076C136.153 24.3654 136.437 24.2232 136.437 22.6235V17.007C136.437 15.6917 136.224 15.585 135.051 15.3007V14.5897C136.639 14.3847 138.208 14.0519 139.743 13.5944V16.3671L139.814 16.3315Z" fill="#FFFCE9"/>
<path d="M153.643 22.8368C152.043 25.183 150.052 25.7162 148.986 25.7162C145.537 25.7162 143.618 23.1568 143.618 20.1708C143.612 19.3006 143.778 18.4378 144.108 17.6324C144.437 16.827 144.923 16.0949 145.537 15.4784C146.675 14.3409 148.097 13.6299 149.519 13.6299H149.554C150.663 13.644 151.721 14.0905 152.505 14.8741C153.289 15.6577 153.735 16.7165 153.749 17.8246C153.749 18.3578 153.607 18.6777 153.003 18.7488C152.541 18.8199 149.377 19.0688 146.817 19.1754C146.959 21.9837 148.488 23.3701 150.337 23.3701C151.4 23.373 152.426 22.9802 153.216 22.2681L153.643 22.8368ZM148.95 14.6608C147.99 14.6608 147.066 15.8339 146.924 17.9312L150.017 17.8601C150.408 17.8246 150.55 17.789 150.55 17.3269C150.55 16.0117 149.981 14.6608 148.95 14.6608Z" fill="#FFFCE9"/>
<path d="M166.832 16.3316C169.854 16.6871 171.844 17.9313 171.844 20.3841C171.844 22.1259 170.884 23.4767 169.391 24.2943C168.076 25.0408 166.085 25.3963 163.917 25.3963H157.34V24.4721C159.331 24.2943 159.58 24.1166 159.58 21.9126V11.9948C159.58 9.79081 159.331 9.61307 157.518 9.43533V8.54663H165.09C167.081 8.54663 168.396 8.79547 169.356 9.47088C169.843 9.79001 170.239 10.2291 170.507 10.7459C170.774 11.2627 170.904 11.8397 170.884 12.4213C170.884 14.8742 168.716 15.905 166.832 16.2605V16.3316ZM163.597 15.9761C166.085 15.9761 167.187 14.9808 167.187 12.8479C167.187 10.5018 165.801 9.64862 164.379 9.64862C163.962 9.6104 163.545 9.72401 163.206 9.96855C163.028 10.1463 162.992 10.5373 162.992 11.0705V15.9761H163.597ZM162.992 21.8771C162.992 23.7967 163.526 24.3299 164.877 24.3299C166.334 24.2943 167.969 23.2279 167.969 20.704C167.969 18.2867 166.476 17.0426 163.49 17.0426H162.957V21.8771H162.992Z" fill="#FFFCE9"/>
<path d="M171.88 25.3964V24.5788C173.373 24.4011 173.551 24.2944 173.551 22.4459V17.3271C173.551 15.6208 173.373 15.5497 172.129 15.3364V14.5543C173.726 14.3699 175.307 14.0609 176.857 13.6301V22.4459C176.857 24.2233 176.999 24.3655 178.528 24.5788V25.3964H171.88ZM173.124 10.1819C173.126 9.94142 173.175 9.70367 173.269 9.48229C173.364 9.26092 173.5 9.06028 173.672 8.89186C173.844 8.72345 174.047 8.59057 174.27 8.50085C174.493 8.41112 174.732 8.36632 174.973 8.36899C175.208 8.36131 175.444 8.40035 175.664 8.48385C175.885 8.56735 176.087 8.69367 176.259 8.85554C176.431 9.01742 176.569 9.21166 176.665 9.42708C176.762 9.64251 176.815 9.87488 176.821 10.1108V10.1464C176.819 10.3869 176.77 10.6246 176.676 10.846C176.582 11.0674 176.445 11.268 176.273 11.4365C176.101 11.6049 175.898 11.7377 175.675 11.8275C175.452 11.9172 175.213 11.962 174.973 11.9593C174.496 11.9546 174.039 11.7679 173.695 11.4375C173.352 11.1072 173.147 10.658 173.124 10.1819Z" fill="#FFFCE9"/>
<path d="M184.713 14.1277C185.137 13.8426 185.626 13.6712 186.135 13.63C189.192 13.63 190.828 16.1183 190.828 18.6067C190.828 22.4103 187.841 24.9342 184.535 25.6807C183.975 25.6811 183.419 25.5725 182.9 25.3608V28.6312C182.9 30.1242 183.042 30.3019 185.069 30.4797V31.2973H177.852V30.4797C179.523 30.3375 179.63 30.1242 179.63 28.6667V17.0781C179.63 15.6207 179.381 15.4785 178.136 15.3007V14.5187C179.772 14.1988 181.371 13.8077 182.936 13.3456V15.2296L184.713 14.1277ZM182.865 23.4057C183.362 23.8678 184.358 24.401 184.998 24.401C186.419 24.401 187.415 22.6592 187.415 19.9575C187.415 16.7582 185.815 15.5851 184.535 15.5851C183.918 15.5811 183.321 15.8095 182.865 16.225V23.4057Z" fill="#FFFCE9"/>
<path d="M197.866 13.6299C199.379 13.58 200.85 14.132 201.956 15.165C203.062 16.1979 203.714 17.6273 203.768 19.1398V19.4598C203.768 23.6544 200.781 25.7162 197.76 25.7162C193.672 25.7162 191.681 22.7657 191.681 19.9219C191.654 19.1182 191.787 18.3173 192.072 17.5652C192.357 16.8131 192.787 16.1249 193.339 15.54C193.891 14.9551 194.553 14.4852 195.287 14.1574C196.022 13.8296 196.814 13.6503 197.618 13.6299H197.866ZM197.475 14.6253C196.409 14.6253 195.378 16.0116 195.378 18.9976C195.378 22.197 196.373 24.7208 198.009 24.7208C199.004 24.7208 200.035 24.081 200.035 20.2774C200.035 16.6159 199.146 14.6253 197.475 14.6253Z" fill="#FFFCE9"/>
<path d="M203.27 25.3964V24.5788C204.799 24.33 204.976 24.2234 204.976 22.5526V10.6441C204.976 9.07995 204.834 9.00886 203.412 8.83112V8.08461C205.054 7.88305 206.681 7.57431 208.283 7.16037V22.5171C208.283 24.2589 208.425 24.3655 210.024 24.5433V25.3609L203.27 25.3964Z" fill="#FFFCE9"/>
<path d="M218.379 25.7164C217.799 25.7364 217.231 25.5471 216.779 25.1831C216.484 24.9184 216.253 24.5903 216.103 24.2233C215.108 24.8632 213.899 25.7164 213.402 25.7164C212.957 25.7366 212.512 25.6674 212.094 25.5129C211.676 25.3584 211.294 25.1217 210.969 24.8168C210.644 24.5119 210.384 24.145 210.203 23.7378C210.023 23.3306 209.926 22.8913 209.918 22.4459V22.3749C209.918 21.024 210.558 20.3842 211.873 19.8865C213.402 19.3177 215.392 18.6779 215.997 18.1802V17.3982C215.997 15.763 215.357 14.8387 214.397 14.8387C214.227 14.837 214.06 14.8785 213.911 14.9594C213.761 15.0402 213.635 15.1577 213.544 15.3008C213.173 15.8343 212.919 16.4399 212.797 17.0782C212.62 17.7536 212.264 17.9669 211.695 17.9669C211.02 17.9669 210.095 17.3271 210.095 16.6516C210.095 16.1895 210.415 15.834 210.984 15.4075C212.293 14.5328 213.751 13.9062 215.286 13.559C216.198 13.5148 217.1 13.7776 217.845 14.3055C218.947 15.1586 219.196 16.2606 219.196 17.7181V21.9838C219.196 23.1925 219.623 23.5124 220.014 23.5124C220.323 23.5136 220.628 23.4404 220.903 23.2991L221.151 24.1167L218.379 25.7164ZM216.032 19.1755C215.57 19.4244 215.108 19.7088 214.61 19.9931C213.793 20.4197 213.402 20.8818 213.402 21.7705C213.402 23.228 214.361 23.7612 214.966 23.7612C215.36 23.7491 215.738 23.598 216.032 23.3346V19.1755Z" fill="#FFFCE9"/>
<path d="M226.306 16.3315C227.23 14.7319 228.261 13.5944 229.221 13.5944C229.654 13.5707 230.078 13.7175 230.404 14.0032C230.73 14.289 230.93 14.6909 230.963 15.1229V15.194C230.974 15.6069 230.857 16.0131 230.628 16.3568C230.399 16.7005 230.069 16.9649 229.683 17.1136C229.549 17.1672 229.404 17.1855 229.261 17.1668C229.118 17.1482 228.982 17.0931 228.866 17.007C228.553 16.687 228.138 16.4859 227.693 16.4382C227.195 16.4382 226.697 16.7937 226.235 17.789V22.6235C226.235 24.2232 226.377 24.3298 228.404 24.5076V25.3252H221.294V24.5076C222.68 24.3654 222.965 24.2232 222.965 22.6235V17.007C222.965 15.6917 222.751 15.585 221.578 15.3007V14.5897C223.169 14.4019 224.74 14.0687 226.271 13.5944V16.3671L226.306 16.3315Z" fill="#FFFCE9"/>
<path d="M13.5419 10.6084C13.6549 10.5986 13.7594 10.5445 13.8327 10.4579C13.9059 10.3714 13.942 10.2593 13.9329 10.1462H13.0797V10.2173C13.0895 10.3303 13.1436 10.4349 13.2302 10.5081C13.3167 10.5814 13.4288 10.6174 13.5419 10.6084Z" fill="white"/>
<path d="M13.151 11.746C13.5739 11.7417 13.9784 11.5718 14.2774 11.2727C14.5765 10.9736 14.7464 10.5692 14.7507 10.1462H14.1464V10.324C14.1347 10.4524 14.0978 10.5772 14.0379 10.6913C13.978 10.8055 13.8962 10.9067 13.7972 10.9892C13.6981 11.0718 13.5838 11.134 13.4608 11.1723C13.3377 11.2107 13.2083 11.2244 13.0799 11.2127C12.9515 11.2011 12.8267 11.1642 12.7125 11.1043C12.5984 11.0444 12.4972 10.9626 12.4146 10.8635C12.3321 10.7645 12.2699 10.6502 12.2315 10.5271C12.1932 10.404 12.1795 10.2746 12.1911 10.1462H11.5868C11.5789 10.3554 11.6137 10.564 11.689 10.7593C11.7644 10.9547 11.8787 11.1326 12.0251 11.2823C12.1714 11.4319 12.3467 11.5502 12.5403 11.63C12.7339 11.7097 12.9417 11.7492 13.151 11.746Z" fill="white"/>
<path d="M10.9823 30.764C12.1441 31.319 13.3759 31.7136 14.6439 31.9371L14.8216 28.6667L15.1416 22.9435L14.4661 22.588L12.5465 22.0904L9.5603 21.2728H9.52475L4.44116 24.792C4.61891 25.0764 4.76111 25.3252 4.86776 25.503C6.40046 27.7704 8.51152 29.5868 10.9823 30.764Z" fill="white"/>
<path d="M10.2005 20.0286L10.4493 20.0641L11.658 20.2419L14.9997 21.3083L15.604 21.2727L16.5638 20.3485L16.4216 17.0781L21.5763 17.5402L27.051 19.1043L27.8686 18.9621V17.8957L26.9443 17.6469L29.7527 16.9004L31.4591 17.5047L30.8903 17.7891V18.9977L32.2767 16.5804L33.0233 7.55127L32.5611 7.65791L32.49 8.47551L31.9568 9.00873L31.9924 7.0536H33.0588L33.201 5.77387L30.6059 5.59614L29.8594 16.3671H29.6816L30.0016 5.52504L25.8067 5.20511L9.59612 7.69346L10.0583 8.40442L9.34728 8.22668L9.77387 8.93764H9.20508L10.2005 20.0286ZM28.0819 6.84031V9.00873L27.4065 8.33332L27.3354 7.51572L26.02 7.19579L25.4868 6.84031H28.0819ZM11.2314 9.93298H15.0352V10.0041C15.1015 10.5775 15.0108 11.1581 14.7729 11.684C14.535 12.2099 14.1587 12.6613 13.6843 12.9901C13.9604 12.7092 14.1885 12.385 14.3598 12.0303C14.0161 12.3799 13.5658 12.605 13.08 12.6702C13.5094 12.4932 13.8881 12.2122 14.182 11.8526C13.89 12.0404 13.5595 12.1603 13.2149 12.2034C12.8704 12.2465 12.5205 12.2116 12.1912 12.1014C12.476 12.1251 12.7626 12.1131 13.0444 12.0658C12.5557 12.0338 12.0972 11.8181 11.7609 11.4621C11.4246 11.106 11.2355 10.636 11.2314 10.1463V9.93298Z" fill="white"/>
<path d="M34.5518 4.42314L25.7 3.74773L15.3195 5.38293C15.1601 4.98171 14.8727 4.64433 14.5019 4.42314C14.309 4.30622 14.0876 4.24472 13.862 4.2454C13.7071 4.23953 13.552 4.25146 13.3999 4.28094C13.2513 4.30671 13.1075 4.35465 12.9733 4.42314L13.1155 5.77396L9.45385 6.34272C8.99171 4.45868 7.71193 3.85437 7.46308 3.74773L7.21423 3.64108C7.08524 3.70793 6.9657 3.7916 6.85874 3.88992C6.72242 4.05574 6.62522 4.25014 6.57434 4.45868C6.53286 4.76651 6.54488 5.0792 6.60989 5.38293L6.71654 6.23608C6.7461 6.47185 6.75799 6.70949 6.75209 6.94704C6.71654 7.69354 6.85874 8.19121 7.10758 8.47559C7.1877 8.55158 7.28291 8.60985 7.38704 8.64659C7.49116 8.68334 7.60186 8.69775 7.71193 8.68888L8.67176 20.0642L3.69482 23.5123C3.76592 23.6545 3.87257 23.8323 3.97922 24.01L9.27611 20.2775H9.31166L8.17407 8.22676H8.13852C8.05601 8.2561 7.9676 8.26495 7.88091 8.25257C7.79421 8.24018 7.71182 8.20693 7.64083 8.15566C7.39198 7.97792 7.21423 7.55135 7.21423 6.91149C7.21408 6.43552 7.17843 5.96023 7.10758 5.48957C7.07203 5.31183 7.03648 5.09855 7.00093 4.92081C6.9791 4.68648 7.02867 4.45103 7.14313 4.2454C7.17868 4.1743 7.24978 4.06766 7.24978 4.10321C7.7322 4.38366 8.14553 4.76879 8.45931 5.23021C8.77309 5.69163 8.97932 6.21758 9.06281 6.7693V6.80484L13.1155 6.27163L13.6487 6.20053L13.4354 4.67197C13.6208 4.61562 13.8188 4.61562 14.0042 4.67197C14.0753 4.70752 14.1108 4.70752 14.1819 4.74307C14.3726 4.86804 14.5409 5.02427 14.6796 5.20519C14.8428 5.45389 14.9854 5.71544 15.1062 5.98724L15.5684 5.91615L25.7711 4.35204L33.912 5.02745L32.881 16.7938L31.3168 19.531H31.068L30.2503 20.6685H28.7928L27.9041 19.8509L27.0153 19.922L21.363 18.2157L17.2037 17.8602L17.2748 19.8865L22.7138 21.7349L25.5578 29.8043L26.0911 29.4844L25.3801 27.6003L23.2826 21.415L23.2471 21.2728L23.0693 21.2373L17.7725 19.4954L17.7369 18.3579L21.2563 18.6778L26.9798 20.4552L27.7619 20.4197L28.5795 21.2017H30.4992L31.3168 20.0287H31.6368L33.3787 17.0782L34.5518 4.42314Z" fill="white"/>
<path d="M29.9303 17.5758L29.6459 19.0334L29.4326 17.5758L28.3306 17.8247V19.4244L28.3661 19.46L29.0416 20.1354H29.9303L30.5346 19.3178V17.7536L29.9303 17.5758Z" fill="white"/>
<path d="M24.8468 30.1953L22.1806 22.2681L18.2701 20.8818L15.9238 22.8369L17.9146 32.186C20.3527 32.0955 22.7321 31.4122 24.8468 30.1953Z" fill="white"/>
<path d="M10.7338 20.4907L9.95166 20.9884L14.4309 22.1971L14.7153 21.5572L11.4447 20.5618L10.7338 20.4907Z" fill="white"/>
<path d="M7.92498 5.41845C7.81833 5.27625 7.53394 4.8852 7.53394 5.0274C7.53394 5.06295 7.56949 5.34735 7.60503 5.59619C7.64058 5.84504 7.64058 6.12944 7.67613 6.37828C7.65938 6.70774 7.72026 7.03652 7.85388 7.33812C7.91582 7.40758 7.98769 7.46748 8.06718 7.51587C8.06718 7.51587 8.24493 7.58697 8.24493 7.55142C8.28048 7.33812 8.35158 7.01818 8.35158 7.01818L8.63597 6.94708C8.60042 6.80488 8.56487 6.66268 8.52932 6.48493C8.49377 6.34273 8.42268 6.23609 8.38713 6.09389C8.2453 5.86062 8.09103 5.63514 7.92498 5.41845Z" fill="white"/>
<path d="M16.2792 22.0193L17.8079 20.7395L16.9191 20.4907L15.8882 21.5216L16.2792 22.0193Z" fill="white"/>
<path d="M13.8975 5.16962L14.0397 6.12945L14.644 6.02281C14.3596 5.24072 13.8975 5.16962 13.8975 5.16962Z" fill="white"/>
<path d="M27.3351 7.51577L27.4062 8.33341L28.0817 9.00886V6.84033H25.5221L26.0553 7.19583L27.3351 7.51577Z" fill="#090909"/>
<path d="M13.0442 12.0305C12.7645 12.0955 12.4751 12.1075 12.191 12.066C12.5203 12.1763 12.8701 12.2111 13.2147 12.1681C13.5592 12.125 13.8897 12.0051 14.1817 11.8172C13.8878 12.1769 13.5091 12.4578 13.0797 12.6348C13.5582 12.5467 14.0019 12.3248 14.3595 11.9949C14.1882 12.3496 13.9601 12.6739 13.684 12.9548C14.1726 12.6397 14.5599 12.1904 14.7995 11.6608C15.0391 11.1311 15.1209 10.5436 15.0349 9.96862V9.89752H11.2311V10.0753C11.2278 10.5707 11.4135 11.0487 11.7503 11.412C12.0872 11.7753 12.5499 11.9965 13.0442 12.0305ZM13.0797 10.1464H13.9329C13.9376 10.2024 13.9311 10.2588 13.914 10.3123C13.8969 10.3659 13.8694 10.4155 13.8331 10.4584C13.7968 10.5013 13.7524 10.5367 13.7024 10.5624C13.6524 10.5882 13.5979 10.6038 13.5418 10.6085C13.4858 10.6132 13.4294 10.6068 13.3759 10.5896C13.3223 10.5725 13.2727 10.545 13.2298 10.5087C13.1869 10.4724 13.1515 10.428 13.1258 10.378C13.1 10.328 13.0844 10.2735 13.0797 10.2175V10.1464ZM11.5511 10.1464H12.1554C12.1437 10.2748 12.1575 10.4042 12.1958 10.5273C12.2342 10.6503 12.2964 10.7646 12.3789 10.8637C12.5456 11.0637 12.7849 11.1893 13.0442 11.2129C13.3034 11.2364 13.5615 11.156 13.7615 10.9894C13.9615 10.8227 14.0871 10.5834 14.1106 10.3241V10.1464H14.715C14.7159 10.3567 14.6751 10.5651 14.595 10.7596C14.515 10.9541 14.3972 11.1308 14.2484 11.2795C14.0997 11.4283 13.923 11.5461 13.7285 11.6261C13.534 11.7062 13.3256 11.747 13.1153 11.7461C12.696 11.7404 12.2961 11.5689 12.003 11.2691C11.7098 10.9693 11.5474 10.5656 11.5511 10.1464Z" fill="#090909"/>
<path d="M25.5222 2.96563C22.9077 1.48507 19.9365 0.751729 16.9333 0.845769C13.9301 0.939809 11.0106 1.85761 8.49391 3.49885C8.31258 3.3579 8.10807 3.24964 7.88957 3.17892L7.24967 2.89454L6.60978 3.32111C6.43203 3.42775 5.64994 4.10316 5.93434 5.52508L5.82769 5.63172C4.29213 7.15442 3.07211 8.96511 2.2375 10.9601C1.40289 12.955 0.970107 15.095 0.963934 17.2575C0.957761 19.42 1.37832 21.5624 2.20153 23.5621C3.02473 25.5618 4.2344 27.3794 5.76124 28.9108C7.28808 30.4423 9.10208 31.6574 11.0993 32.4867C13.0966 33.316 15.2378 33.7431 17.4004 33.7435C19.563 33.744 21.7044 33.3177 23.702 32.4893C25.6996 31.6608 27.5141 30.4464 29.0416 28.9156C31.8252 26.1222 33.5261 22.4309 33.8408 18.5L33.9474 17.6469L34.1607 17.327L35.2627 5.45398L35.476 3.78323L25.5222 2.96563ZM31.3167 19.9575L30.4991 21.1306H28.5794L27.7618 20.3485L26.9797 20.3841L21.2562 18.6067L17.7368 18.3579L17.7723 19.5309L23.0692 21.2372L23.2114 21.3083L23.247 21.4505L25.3444 27.6359L26.0554 29.5199L25.5222 29.8398L22.6782 21.7705L17.2391 19.8864L17.168 17.8602L21.3273 18.2157L26.9797 19.922L27.8684 19.8509L28.7572 20.6685H30.2147L31.0323 19.5309H31.2812L32.8454 16.7938L33.8763 5.02741L25.7355 4.352L15.5327 5.88056L15.0706 5.95165C14.9562 5.67673 14.8132 5.41461 14.644 5.1696C14.5143 4.98064 14.3443 4.8228 14.1463 4.70748C14.0976 4.66299 14.0345 4.63772 13.9685 4.63638C13.7864 4.56133 13.5819 4.56133 13.3997 4.63638L13.613 6.16494L13.1154 6.27158L9.0627 6.84035V6.8048C8.97921 6.25309 8.77298 5.72714 8.4592 5.26572C8.14542 4.8043 7.73209 4.41917 7.24967 4.13871C7.21713 4.18829 7.18151 4.23578 7.14303 4.2809C7.04167 4.49122 6.99287 4.72299 7.00083 4.95631C7.03638 5.1696 7.07193 5.34734 7.10748 5.52508C7.17857 5.9872 7.17857 6.48487 7.21412 6.94699C7.21412 7.58685 7.35632 8.01343 7.64072 8.19117C7.71156 8.24277 7.79396 8.27623 7.88072 8.28863C7.96748 8.30102 8.05596 8.29197 8.13841 8.26226L8.20951 8.22672L9.3471 20.2774H9.31155L3.97911 24.01C3.87246 23.8322 3.76582 23.6545 3.69472 23.5123L8.70721 20.0997L7.74737 8.72439C7.52743 8.72463 7.31409 8.64933 7.14303 8.5111C6.89418 8.26226 6.75198 7.72905 6.78753 6.98254C6.78753 6.73371 6.75198 6.52042 6.75198 6.27158C6.73397 5.98528 6.69835 5.70036 6.64533 5.41843C6.57961 5.11479 6.56758 4.80198 6.60978 4.49419C6.63779 4.27798 6.73801 4.07756 6.89418 3.92542C6.99133 3.81554 7.11316 3.73026 7.24967 3.67659L7.46297 3.74768C7.97045 3.99087 8.41446 4.34867 8.75995 4.79285C9.10544 5.23703 9.34295 5.75543 9.45375 6.30713L13.1154 5.77391L12.9732 4.42309C12.9732 4.38755 13.3642 4.31645 13.3997 4.2809C13.5519 4.25142 13.707 4.23949 13.8619 4.24535C14.0861 4.25425 14.3051 4.3151 14.5018 4.42309C14.8546 4.66485 15.1368 4.9961 15.3194 5.38289L25.6999 3.74768L34.5517 4.42309L33.3786 17.007L31.6367 19.9575H31.3167ZM4.44126 24.792L9.52485 21.2728H9.5604L12.5466 22.0904L14.4662 22.5881L15.1417 22.9435L14.8217 28.6667L14.644 31.9371C13.3814 31.6919 12.1524 31.2982 10.9824 30.7641C8.51162 29.5868 6.40055 27.7704 4.86785 25.503C4.7612 25.3252 4.61901 25.0764 4.44126 24.792ZM9.276 8.22672L9.98699 8.40446L9.52485 7.6935L25.7355 5.20515L29.9303 5.52508L29.6104 16.3672H29.7881L30.5346 5.59617L33.1298 5.77391L32.9876 7.05364H31.9211L31.8855 9.00877L32.4188 8.47555L32.4899 7.65795L32.9165 7.58685L32.1699 16.616L30.8901 18.9977V17.7891L31.4589 17.5403L29.7526 16.9359L26.9441 17.6824L27.8684 17.9313V18.9977L27.0508 19.1399L21.5762 17.5758L16.4215 17.1137L16.5637 20.3841L15.6038 21.2728L14.9995 21.3083L11.6578 20.2419L10.4491 20.0642L10.2003 20.0286L9.16935 8.97322H9.73814L9.276 8.22672ZM13.8974 5.1696C13.8974 5.1696 14.3596 5.24069 14.644 6.0583L14.0396 6.16494L13.8974 5.1696ZM30.5346 19.3177L29.9303 20.0997H29.0416L28.3661 19.4243L28.3306 19.3887V17.7891L29.4326 17.5403L29.6459 19.0333L29.9303 17.5758L30.5346 17.7535V19.3177ZM16.9192 20.4907L17.8079 20.7396L16.2437 21.9837L15.8882 21.5216L16.9192 20.4907ZM14.7151 21.5572L14.3951 22.197L9.95144 20.9884L10.7335 20.4552L11.4445 20.5618L14.7151 21.5572ZM18.27 20.9173L22.1805 22.3037L24.8467 30.1953C22.7273 31.4009 20.3507 32.0833 17.9145 32.186L15.9238 22.8724L18.27 20.9173ZM8.60056 6.94699L8.31616 7.01809C8.31616 7.01809 8.24506 7.33802 8.20951 7.55131C8.20951 7.58685 8.03176 7.51576 8.03176 7.51576C7.92512 7.48021 7.88957 7.40912 7.81847 7.33802C7.68804 7.03545 7.62729 6.70743 7.64072 6.37823C7.63468 6.11624 7.61092 5.85496 7.56962 5.59617C7.53407 5.34734 7.49852 5.06296 7.49852 5.02741C7.49852 4.88522 7.78292 5.27624 7.88957 5.41843C8.06502 5.63381 8.20868 5.87324 8.31616 6.12939C8.37909 6.25355 8.42684 6.38484 8.45836 6.52042C8.52161 6.65683 8.56931 6.79992 8.60056 6.94699Z" fill="#090909"/>
</svg>
