<svg width="230" height="34" viewBox="0 0 230 34" fill="none" xmlns="http://www.w3.org/2000/svg">
<path d="M53.8519 20.8426C53.6184 22.2914 53.3099 23.7271 52.9276 25.1439H39.7031V24.2197C41.9072 24.0419 42.156 23.8642 42.156 21.6958V11.7424C42.156 9.4673 41.9072 9.36066 40.0586 9.21846V8.29422H52.2877C52.3232 8.75634 52.4299 10.5693 52.5365 12.2045L51.6122 12.3467C51.3634 11.458 51.0079 10.5693 50.5457 10.1072C50.0836 9.64504 49.4082 9.4673 47.9506 9.4673H46.7064C45.7466 9.4673 45.6399 9.50285 45.6399 10.3915V15.8659H47.3818C49.5504 15.8659 49.9059 15.7237 50.2613 13.9108H51.1856V19.1363H50.2613C49.9059 17.2523 49.5859 17.1812 47.3818 17.1812H45.6399V21.6247C45.6399 22.8333 45.7466 23.4732 46.2798 23.7575C46.813 24.0419 47.6307 24.0064 48.6261 24.0064C49.9414 24.0064 50.8657 23.8286 51.5056 23.1888C52.1055 22.4187 52.596 21.5694 52.9631 20.6649L53.8519 20.8426Z" fill="#090909"/>
<path d="M54.2061 25.144V24.3264C55.7347 24.0776 55.8769 23.9709 55.8769 22.3002V10.3916C55.8769 8.82754 55.7347 8.75644 54.3127 8.5787V7.8322C55.9434 7.63391 57.5586 7.32512 59.1474 6.90795V22.2646C59.1474 24.0065 59.2896 24.1131 60.8894 24.2909V25.1085L54.2061 25.144Z" fill="#090909"/>
<path d="M80.087 20.7361C79.7078 22.146 79.2205 23.5246 78.6294 24.8597C77.044 25.2436 75.4246 25.4698 73.7947 25.5351C66.8981 25.5351 64.0186 21.056 64.0186 16.9325C64.0186 11.6003 68.1068 7.90333 74.3279 7.90333C75.9274 7.94298 77.5157 8.1818 79.056 8.61429C79.2693 10.0362 79.4826 11.2448 79.6604 12.88L78.7005 13.0578C77.8473 9.96511 75.8566 9.07641 73.8658 9.07641C70.0975 9.07641 68.0357 12.6312 68.0357 16.4704C68.0357 21.2338 70.5952 24.3975 74.1146 24.3975C76.2476 24.3975 77.8829 23.0112 79.1982 20.4162L80.087 20.7361Z" fill="#090909"/>
<path d="M87.3031 25.1439V24.3263C88.5473 24.1486 88.6184 23.9709 88.6184 22.549V17.9633C88.6184 15.9726 87.7652 15.2972 86.7699 15.2972C86.0769 15.3007 85.4083 15.553 84.8857 16.0081V22.549C84.8857 23.9709 84.9924 24.1486 86.0944 24.3263V25.1439H79.9443V24.3263C81.4374 24.1842 81.5796 24.0775 81.5796 22.4423V10.356C81.5796 8.75638 81.473 8.75638 80.1221 8.61419V7.86768C81.726 7.64881 83.3164 7.34024 84.8857 6.94344V15.0839C85.7745 14.1952 87.0543 13.4131 88.334 13.4131C90.6092 13.4131 91.9245 14.8706 91.9245 17.7144V22.4779C91.9245 24.1486 92.0667 24.1486 93.4176 24.3619V25.1795L87.3031 25.1439Z" fill="#090909"/>
<path d="M94.0576 25.1439V24.3263C95.5507 24.1486 95.7285 24.0419 95.7285 22.1934V17.0745C95.7285 15.3682 95.5507 15.2971 94.3065 15.0839V14.3018C95.9042 14.1174 97.485 13.8084 99.0346 13.3776V22.1934C99.0346 23.9708 99.1768 24.113 100.741 24.3263V25.1439H94.0576ZM95.3374 9.92941C95.3394 9.6889 95.3888 9.45115 95.4829 9.22977C95.5769 9.0084 95.7137 8.80776 95.8855 8.63934C96.0572 8.47093 96.2605 8.33805 96.4836 8.24833C96.7068 8.15861 96.9455 8.1138 97.186 8.11647C97.657 8.09932 98.1156 8.26908 98.4619 8.58872C98.8082 8.90836 99.014 9.35196 99.0346 9.82277V9.92941C99.0326 10.1699 98.9831 10.4077 98.8891 10.6291C98.795 10.8504 98.6582 11.0511 98.4865 11.2195C98.3148 11.3879 98.1115 11.5208 97.8883 11.6105C97.6652 11.7002 97.4265 11.745 97.186 11.7424C96.7039 11.7356 96.2429 11.5435 95.8987 11.2059C95.5545 10.8684 95.3535 10.4112 95.3374 9.92941Z" fill="#090909"/>
<path d="M112.651 13.9463C112.508 14.3729 112.011 15.2616 111.549 15.546L110.055 15.4393C110.517 15.9857 110.77 16.6789 110.766 17.3944C110.766 20.0961 108.349 21.4469 105.825 21.4469C105.395 21.4347 104.967 21.3871 104.545 21.3047C104.339 21.4865 104.211 21.7415 104.19 22.0157C104.19 22.4422 104.616 23.011 105.861 23.011C106.678 23.011 107.425 22.9755 108.242 22.9755C109.842 22.9755 112.224 23.402 112.224 26.1392C112.224 29.0897 108.74 31.4714 105.292 31.4714C101.95 31.4714 100.457 29.7651 100.457 28.3076C100.457 27.7389 100.741 27.3123 101.275 26.8857C101.904 26.4264 102.557 25.9993 103.23 25.606C102.428 25.3832 101.734 24.8782 101.275 24.1841C101.017 23.7693 100.893 23.2853 100.919 22.7977C101.905 22.417 102.8 21.836 103.55 21.0914C102.808 20.8746 102.159 20.4192 101.703 19.7957C101.246 19.1723 101.008 18.4157 101.026 17.6433C101.026 14.7284 103.728 13.3775 106.038 13.3775H106.074C107.043 13.3812 107.996 13.6255 108.847 14.0885C110.198 14.0174 111.584 13.8752 112.615 13.7686L112.651 13.9463ZM106.003 25.6771C104.759 25.6771 104.225 25.8193 103.834 26.2103C103.48 26.5613 103.266 27.0285 103.23 27.5256C103.23 28.7698 104.51 30.0139 106.572 30.0139C108.527 30.0139 109.7 28.9475 109.7 27.5611C109.7 27.1536 109.552 26.76 109.284 26.4529C109.016 26.1458 108.646 25.946 108.242 25.8904C107.505 25.7456 106.755 25.6742 106.003 25.6771ZM105.825 14.3018C105.043 14.3018 104.296 15.2971 104.296 17.1812C104.296 18.9941 104.901 20.4516 106.074 20.4516C107.105 20.4516 107.638 19.4207 107.638 17.5011C107.638 15.8303 107.069 14.3018 105.825 14.3018Z" fill="#090909"/>
<path d="M126.123 24.5396C125.377 24.6463 124.63 24.7885 123.777 24.9662C122.924 25.1439 122.142 25.3217 121.36 25.4994L121.147 25.3217V23.7576C120.744 24.1084 120.316 24.4291 119.867 24.7174C119.207 25.2058 118.412 25.4789 117.592 25.4994C115.423 25.4994 114.179 24.0775 114.179 21.8024V16.3992C114.179 15.1905 114.037 15.0839 113.361 14.9061L112.757 14.7284V13.9819C113.397 13.9464 114.214 13.8753 115.068 13.8042C115.921 13.7331 116.845 13.6264 117.556 13.5198C117.52 14.6218 117.485 15.937 117.485 17.43V21.1981C117.485 22.8689 118.374 23.4732 119.262 23.4732C119.609 23.4942 119.956 23.4417 120.28 23.3192C120.605 23.1966 120.9 23.0068 121.147 22.7622V16.4347C121.147 15.2261 121.004 15.0483 120.329 14.9061L119.547 14.7284V13.9819C120.293 13.9464 121.218 13.8753 122.142 13.8042C122.928 13.7487 123.711 13.6537 124.488 13.5198V21.9446C124.488 23.331 124.63 23.5443 125.59 23.6509L126.159 23.722L126.123 24.5396ZM114.605 9.96499C114.62 9.50156 114.813 9.06171 115.144 8.73718C115.476 8.41265 115.919 8.2285 116.383 8.22315C116.84 8.209 117.284 8.37708 117.618 8.69041C117.951 9.00374 118.146 9.43664 118.16 9.8939C118.175 10.3511 118.006 10.7953 117.693 11.1286C117.38 11.4619 116.947 11.6571 116.49 11.6713H116.383C115.925 11.6677 115.485 11.4889 115.155 11.1716C114.824 10.8543 114.628 10.4226 114.605 9.96499ZM119.938 9.96499C119.939 9.50326 120.122 9.06065 120.449 8.73415C120.775 8.40765 121.218 8.2239 121.68 8.22315C122.142 8.22315 122.585 8.40666 122.912 8.73332C123.238 9.05998 123.422 9.50303 123.422 9.96499C123.422 10.427 123.238 10.87 122.912 11.1967C122.585 11.5233 122.142 11.7068 121.68 11.7068H121.644C121.196 11.6749 120.775 11.4801 120.461 11.1592C120.147 10.8384 119.961 10.4136 119.938 9.96499Z" fill="#090909"/>
<path d="M126.692 25.1439V24.3263C128.185 24.1486 128.363 24.0419 128.363 22.1934V17.0745C128.363 15.3682 128.185 15.2971 126.941 15.0839V14.3018C128.539 14.1174 130.12 13.8084 131.669 13.3776V22.1934C131.669 23.9708 131.812 24.113 133.376 24.3263V25.1439H126.692ZM127.972 9.92941C127.974 9.6889 128.024 9.45115 128.118 9.22977C128.212 9.0084 128.348 8.80776 128.52 8.63934C128.692 8.47093 128.895 8.33805 129.118 8.24833C129.342 8.15861 129.58 8.1138 129.821 8.11647C130.292 8.09932 130.75 8.26908 131.097 8.58872C131.443 8.90836 131.649 9.35196 131.669 9.82277V9.92941C131.667 10.1699 131.618 10.4077 131.524 10.6291C131.43 10.8504 131.293 11.0511 131.121 11.2195C130.95 11.3879 130.746 11.5208 130.523 11.6105C130.3 11.7002 130.061 11.745 129.821 11.7424H129.785C129.307 11.7343 128.85 11.5407 128.512 11.2025C128.174 10.8642 127.98 10.4077 127.972 9.92941Z" fill="#090909"/>
<path d="M138.851 16.0791C139.775 14.4795 140.806 13.3419 141.766 13.3419C142.198 13.3183 142.623 13.4651 142.949 13.7508C143.274 14.0366 143.475 14.4385 143.508 14.8705V14.9416C143.519 15.3545 143.402 15.7607 143.172 16.1044C142.943 16.4481 142.613 16.7125 142.228 16.8612C142.094 16.9137 141.948 16.9315 141.805 16.9128C141.663 16.8942 141.527 16.8397 141.41 16.7545C141.088 16.4272 140.659 16.2255 140.202 16.1858C139.704 16.1858 139.171 16.5413 138.744 17.5366V22.3711C138.744 23.9708 138.886 24.0774 140.913 24.2551V25.0727H133.803V24.2551C135.189 24.113 135.474 23.9708 135.474 22.3711V16.7545C135.474 15.4393 135.26 15.3326 134.087 15.0482V14.3373C135.676 14.1323 137.245 13.7995 138.78 13.3419V16.1147L138.851 16.0791Z" fill="#090909"/>
<path d="M152.678 22.5844C151.079 24.9306 149.088 25.4638 148.021 25.4638C144.573 25.4638 142.653 22.9044 142.653 19.9183C142.647 19.0482 142.814 18.1854 143.144 17.38C143.473 16.5746 143.959 15.8425 144.573 15.226C145.711 14.0885 147.133 13.3775 148.555 13.3775H148.59C149.698 13.3916 150.757 13.8381 151.541 14.6217C152.325 15.4053 152.771 16.4641 152.785 17.5722C152.785 18.1054 152.643 18.4253 152.039 18.4964C151.576 18.5675 148.413 18.8164 145.853 18.923C145.995 21.7313 147.524 23.1177 149.372 23.1177C150.436 23.1206 151.462 22.7278 152.252 22.0157L152.678 22.5844ZM147.986 14.4084C147.026 14.4084 146.102 15.5815 145.96 17.6788L149.052 17.6077C149.443 17.5722 149.586 17.5366 149.586 17.0745C149.586 15.7592 149.017 14.4084 147.986 14.4084Z" fill="#090909"/>
<path d="M165.868 16.0792C168.889 16.4347 170.88 17.6789 170.88 20.1317C170.88 21.8735 169.92 23.2243 168.427 24.0419C167.112 24.7884 165.121 25.1439 162.953 25.1439H156.376V24.2197C158.367 24.0419 158.616 23.8642 158.616 21.6602V11.7424C158.616 9.5384 158.367 9.36066 156.554 9.18292V8.29422H164.126C166.117 8.29422 167.432 8.54306 168.392 9.21846C168.878 9.5376 169.275 9.97671 169.543 10.4935C169.81 11.0103 169.94 11.5873 169.92 12.1689C169.92 14.6217 167.752 15.6526 165.868 16.0081V16.0792ZM162.633 15.7237C165.121 15.7237 166.223 14.7284 166.223 12.5955C166.223 10.2494 164.837 9.3962 163.415 9.3962C162.998 9.35799 162.581 9.4716 162.242 9.71613C162.064 9.89387 162.028 10.2849 162.028 10.8181V15.7237H162.633ZM162.028 21.6247C162.028 23.5443 162.562 24.0775 163.912 24.0775C165.37 24.0419 167.005 22.9755 167.005 20.4516C167.005 18.0343 165.512 16.7902 162.526 16.7902H161.993V21.6247H162.028Z" fill="#090909"/>
<path d="M170.916 25.144V24.3264C172.409 24.1487 172.587 24.042 172.587 22.1935V17.0746C172.587 15.3684 172.409 15.2973 171.165 15.084V14.3019C172.763 14.1175 174.343 13.8085 175.893 13.3777V22.1935C175.893 23.9709 176.035 24.1131 177.564 24.3264V25.144H170.916ZM172.16 9.92953C172.162 9.68902 172.212 9.45126 172.306 9.22989C172.4 9.00851 172.537 8.80787 172.708 8.63946C172.88 8.47104 173.083 8.33817 173.306 8.24844C173.53 8.15872 173.768 8.11391 174.009 8.11659C174.245 8.10891 174.48 8.14795 174.701 8.23145C174.921 8.31495 175.124 8.44127 175.295 8.60314C175.467 8.76502 175.605 8.95925 175.702 9.17468C175.798 9.39011 175.851 9.62248 175.857 9.85843V9.89398C175.855 10.1345 175.806 10.3722 175.712 10.5936C175.618 10.815 175.481 11.0156 175.309 11.184C175.138 11.3525 174.934 11.4853 174.711 11.5751C174.488 11.6648 174.249 11.7096 174.009 11.7069C173.532 11.7021 173.075 11.5155 172.732 11.1851C172.388 10.8547 172.184 10.4056 172.16 9.92953Z" fill="#090909"/>
<path d="M183.75 13.8753C184.173 13.5902 184.663 13.4188 185.172 13.3776C188.229 13.3776 189.864 15.8659 189.864 18.3543C189.864 22.1579 186.878 24.6818 183.572 25.4283C183.011 25.4287 182.456 25.3201 181.937 25.1084V28.3788C181.937 29.8718 182.079 30.0495 184.105 30.2273V31.0449H176.889V30.2273C178.56 30.0851 178.666 29.8718 178.666 28.4143V16.8257C178.666 15.3683 178.417 15.2261 177.173 15.0483V14.2663C178.808 13.9463 180.408 13.5553 181.972 13.0932V14.9772L183.75 13.8753ZM181.901 23.1532C182.399 23.6154 183.394 24.1486 184.034 24.1486C185.456 24.1486 186.452 22.4067 186.452 19.7051C186.452 16.5058 184.852 15.3327 183.572 15.3327C182.954 15.3287 182.358 15.5571 181.901 15.9726V23.1532Z" fill="#090909"/>
<path d="M196.903 13.3775C198.415 13.3276 199.886 13.8796 200.993 14.9125C202.099 15.9454 202.75 17.3749 202.804 18.8874V19.2073C202.804 23.402 199.818 25.4638 196.796 25.4638C192.708 25.4638 190.717 22.5133 190.717 19.6695C190.691 18.8658 190.824 18.0648 191.108 17.3128C191.393 16.5607 191.824 15.8724 192.376 15.2876C192.927 14.7027 193.59 14.2328 194.324 13.905C195.058 13.5772 195.85 13.3979 196.654 13.3775H196.903ZM196.512 14.3728C195.445 14.3728 194.414 15.7592 194.414 18.7452C194.414 21.9445 195.41 24.4684 197.045 24.4684C198.04 24.4684 199.071 23.8286 199.071 20.0249C199.071 16.3635 198.183 14.3728 196.512 14.3728Z" fill="#090909"/>
<path d="M202.306 25.144V24.3264C203.834 24.0776 204.012 23.9709 204.012 22.3002V10.3916C204.012 8.82754 203.87 8.75644 202.448 8.5787V7.8322C204.09 7.63064 205.717 7.32189 207.318 6.90795V22.2646C207.318 24.0065 207.46 24.1131 209.06 24.2909V25.1085L202.306 25.144Z" fill="#090909"/>
<path d="M217.415 25.4639C216.835 25.484 216.267 25.2947 215.815 24.9307C215.52 24.666 215.289 24.3379 215.14 23.9709C214.144 24.6108 212.936 25.4639 212.438 25.4639C211.993 25.4842 211.548 25.415 211.131 25.2605C210.713 25.1059 210.33 24.8693 210.005 24.5644C209.681 24.2595 209.42 23.8926 209.24 23.4854C209.059 23.0782 208.962 22.6389 208.954 22.1935V22.1224C208.954 20.7716 209.594 20.1318 210.909 19.6341C212.438 19.0653 214.429 18.4255 215.033 17.9278V17.1457C215.033 15.5105 214.393 14.5863 213.433 14.5863C213.264 14.5846 213.096 14.6261 212.947 14.7069C212.798 14.7878 212.671 14.9053 212.58 15.0484C212.209 15.5819 211.955 16.1875 211.834 16.8258C211.656 17.5012 211.3 17.7145 210.732 17.7145C210.056 17.7145 209.132 17.0746 209.132 16.3992C209.132 15.9371 209.452 15.5816 210.021 15.1551C211.329 14.2804 212.787 13.6538 214.322 13.3066C215.235 13.2624 216.136 13.5252 216.882 14.0531C217.984 14.9062 218.233 16.0082 218.233 17.4657V21.7314C218.233 22.94 218.659 23.26 219.05 23.26C219.359 23.2612 219.664 23.188 219.939 23.0467L220.188 23.8643L217.415 25.4639ZM215.069 18.9231C214.606 19.172 214.144 19.4563 213.647 19.7407C212.829 20.1673 212.438 20.6294 212.438 21.5181C212.438 22.9756 213.398 23.5088 214.002 23.5088C214.397 23.4967 214.774 23.3456 215.069 23.0822V18.9231Z" fill="#090909"/>
<path d="M225.343 16.0791C226.267 14.4795 227.298 13.3419 228.258 13.3419C228.69 13.3183 229.115 13.4651 229.441 13.7508C229.766 14.0366 229.967 14.4385 230 14.8705V14.9416C230.011 15.3545 229.893 15.7607 229.664 16.1044C229.435 16.4481 229.105 16.7125 228.72 16.8612C228.586 16.9148 228.44 16.9331 228.297 16.9144C228.154 16.8957 228.018 16.8407 227.902 16.7545C227.589 16.4346 227.174 16.2335 226.729 16.1858C226.231 16.1858 225.734 16.5413 225.271 17.5366V22.3711C225.271 23.9708 225.414 24.0774 227.44 24.2551V25.0727H220.33V24.2551C221.717 24.113 222.001 23.9708 222.001 22.3711V16.7545C222.001 15.4393 221.788 15.3326 220.614 15.0482V14.3373C222.206 14.1495 223.777 13.8163 225.307 13.3419V16.1147L225.343 16.0791Z" fill="#090909"/>
<path d="M12.5784 10.356C12.6914 10.3462 12.7959 10.2921 12.8692 10.2055C12.9424 10.1189 12.9785 10.0069 12.9694 9.89384H12.1162V9.96494C12.126 10.0779 12.1801 10.1825 12.2667 10.2557C12.3532 10.329 12.4653 10.365 12.5784 10.356Z" fill="white"/>
<path d="M12.1873 11.4936C12.6103 11.4893 13.0147 11.3194 13.3138 11.0203C13.6129 10.7212 13.7828 10.3168 13.7871 9.89384H13.1827V10.0716C13.1711 10.2 13.1342 10.3248 13.0743 10.4389C13.0144 10.5531 12.9326 10.6543 12.8336 10.7368C12.7345 10.8194 12.6202 10.8816 12.4971 10.9199C12.3741 10.9583 12.2446 10.972 12.1162 10.9603C11.9879 10.9487 11.863 10.9118 11.7489 10.8519C11.6348 10.792 11.5335 10.7102 11.451 10.6111C11.3685 10.5121 11.3063 10.3978 11.2679 10.2747C11.2296 10.1516 11.2158 10.0222 11.2275 9.89384H10.6232C10.6153 10.103 10.6501 10.3116 10.7254 10.5069C10.8008 10.7023 10.9151 10.8802 11.0615 11.0299C11.2078 11.1795 11.3831 11.2978 11.5767 11.3776C11.7703 11.4573 11.978 11.4968 12.1873 11.4936Z" fill="white"/>
<path d="M10.0187 30.5116C11.1805 31.0666 12.4123 31.4612 13.6803 31.6847L13.858 28.4143L14.178 22.6911L13.5025 22.3356L11.5828 21.838L8.59668 21.0204H8.56113L3.47754 24.5396C3.65529 24.824 3.79749 25.0728 3.90413 25.2506C5.43683 27.518 7.5479 29.3344 10.0187 30.5116Z" fill="white"/>
<path d="M9.2366 19.7762L9.48545 19.8117L10.6941 19.9894L14.0358 21.0559L14.6401 21.0203L15.6 20.0961L15.4578 16.8257L20.6125 17.2878L26.0871 18.8519L26.9047 18.7097V17.6433L25.9804 17.3944L28.7889 16.6479L30.4952 17.2523L29.9264 17.5366V18.7453L31.3129 16.328L32.0594 7.29885L31.5973 7.40549L31.5262 8.22309L30.9929 8.75631L31.0285 6.80118H32.095L32.2372 5.52146L29.642 5.34372L28.8955 16.1147H28.7178L29.0377 5.27262L24.8429 4.95269L8.63226 7.44104L9.0944 8.152L8.38341 7.97426L8.81 8.68522H8.24121L9.2366 19.7762ZM27.118 6.58789V8.75631L26.4426 8.0809L26.3715 7.2633L25.0562 6.94337L24.5229 6.58789H27.118ZM10.2675 9.68056H14.0713V9.75165C14.1376 10.325 14.0469 10.9057 13.809 11.4315C13.5711 11.9574 13.1949 12.4089 12.7205 12.7377C12.9965 12.4568 13.2247 12.1325 13.3959 11.7779C13.0523 12.1274 12.602 12.3526 12.1161 12.4177C12.5456 12.2408 12.9243 11.9598 13.2182 11.6001C12.9261 11.788 12.5956 11.9079 12.2511 11.951C11.9065 11.9941 11.5567 11.9592 11.2274 11.849C11.5121 11.8727 11.7988 11.8607 12.0806 11.8134C11.5918 11.7814 11.1333 11.5657 10.797 11.2097C10.4608 10.8536 10.2716 10.3836 10.2675 9.89384V9.68056Z" fill="white"/>
<path d="M33.5885 4.17072L24.7366 3.49531L14.3562 5.13051C14.1967 4.72929 13.9093 4.39191 13.5385 4.17072C13.3456 4.0538 13.1242 3.99231 12.8986 3.99298C12.7437 3.98711 12.5887 3.99904 12.4365 4.02853C12.288 4.0543 12.1442 4.10223 12.0099 4.17072L12.1521 5.52154L8.49048 6.0903C8.02833 4.20627 6.74855 3.60195 6.4997 3.49531L6.25085 3.38866C6.12186 3.45551 6.00232 3.53918 5.89536 3.6375C5.75904 3.80332 5.66184 3.99772 5.61096 4.20627C5.56948 4.51409 5.5815 4.82678 5.64651 5.13051L5.75316 5.98366C5.78272 6.21943 5.79461 6.45708 5.78871 6.69462C5.75316 7.44112 5.89536 7.93879 6.1442 8.22318C6.22432 8.29916 6.31953 8.35743 6.42366 8.39418C6.52779 8.43092 6.63848 8.44533 6.74855 8.43646L7.70838 19.8118L2.73145 23.2599C2.80254 23.4021 2.90919 23.5799 3.01584 23.7576L8.31273 20.0251H8.34828L7.21069 7.97434H7.17514C7.09263 8.00368 7.00422 8.01253 6.91753 8.00015C6.83083 7.98777 6.74845 7.95451 6.67745 7.90324C6.4286 7.7255 6.25085 7.29893 6.25085 6.65907C6.2507 6.1831 6.21506 5.70781 6.1442 5.23715C6.10865 5.05941 6.0731 4.84613 6.03755 4.66839C6.01572 4.43406 6.06529 4.19861 6.17975 3.99298C6.2153 3.92188 6.2864 3.81524 6.2864 3.85079C6.76882 4.13124 7.18215 4.51637 7.49593 4.97779C7.80971 5.43921 8.01594 5.96516 8.09943 6.51688V6.55243L12.1521 6.01921L12.6853 5.94811L12.472 4.41955C12.6574 4.3632 12.8554 4.3632 13.0408 4.41955C13.1119 4.4551 13.1475 4.4551 13.2186 4.49065C13.4093 4.61563 13.5775 4.77186 13.7163 4.95277C13.8794 5.20148 14.0221 5.46302 14.1429 5.73482L14.605 5.66373L24.8077 4.09962L32.9486 4.77503L31.9176 16.5414L30.3535 19.2786H30.1046L29.287 20.4161H27.8294L26.9407 19.5985L26.052 19.6696L20.3996 17.9633L16.2403 17.6078L16.3114 19.634L21.7505 21.4825L24.5944 29.5519L25.1277 29.232L24.4167 27.3479L22.3193 21.1626L22.2837 21.0204L22.106 20.9849L16.8091 19.243L16.7735 18.1055L20.2929 18.4254L26.0164 20.2028L26.7985 20.1673L27.6161 20.9493H29.5358L30.3535 19.7762H30.6734L32.4153 16.8258L33.5885 4.17072Z" fill="white"/>
<path d="M28.9659 17.3234L28.6815 18.781L28.4682 17.3234L27.3662 17.5723V19.172L27.4018 19.2076L28.0772 19.883H28.9659L29.5703 19.0654V17.5012L28.9659 17.3234Z" fill="white"/>
<path d="M23.8829 29.9429L21.2167 22.0157L17.3062 20.6293L14.96 22.5845L16.9507 31.9336C19.3889 31.843 21.7682 31.1598 23.8829 29.9429Z" fill="white"/>
<path d="M9.76939 20.2383L8.9873 20.736L13.4666 21.9447L13.7509 21.3048L10.4804 20.3094L9.76939 20.2383Z" fill="white"/>
<path d="M6.96136 5.16603C6.85471 5.02383 6.57031 4.63278 6.57031 4.77498C6.57031 4.81053 6.60586 5.09493 6.64141 5.34377C6.67696 5.59262 6.67696 5.87702 6.71251 6.12586C6.69576 6.45532 6.75664 6.7841 6.89026 7.0857C6.95219 7.15516 7.02407 7.21506 7.10356 7.26345C7.10356 7.26345 7.2813 7.33455 7.2813 7.299C7.31685 7.0857 7.38795 6.76576 7.38795 6.76576L7.67235 6.69466C7.6368 6.55246 7.60125 6.41026 7.5657 6.23251C7.53015 6.09032 7.45905 5.98367 7.4235 5.84147C7.28168 5.6082 7.12741 5.38272 6.96136 5.16603Z" fill="white"/>
<path d="M15.3149 21.7669L16.8435 20.4871L15.9548 20.2383L14.9238 21.2692L15.3149 21.7669Z" fill="white"/>
<path d="M12.9336 4.91721L13.0758 5.87704L13.6801 5.7704C13.3957 4.9883 12.9336 4.91721 12.9336 4.91721Z" fill="white"/>
<path d="M26.3716 7.26336L26.4427 8.08099L27.1182 8.75644V6.58791H24.5586L25.0918 6.94341L26.3716 7.26336Z" fill="#090909"/>
<path d="M12.0807 11.7781C11.801 11.8431 11.5116 11.8551 11.2275 11.8136C11.5567 11.9239 11.9066 11.9587 12.2512 11.9157C12.5957 11.8726 12.9262 11.7527 13.2182 11.5648C12.9243 11.9245 12.5456 12.2054 12.1162 12.3824C12.5947 12.2943 13.0384 12.0724 13.396 11.7425C13.2247 12.0972 12.9966 12.4214 12.7205 12.7024C13.2091 12.3873 13.5964 11.938 13.836 11.4084C14.0756 10.8787 14.1574 10.2912 14.0714 9.71621V9.64511H10.2676V9.82286C10.2643 10.3183 10.45 10.7963 10.7868 11.1596C11.1237 11.5229 11.5864 11.7441 12.0807 11.7781ZM12.1162 9.89396H12.9694C12.9741 9.94998 12.9676 10.0064 12.9505 10.0599C12.9334 10.1135 12.9059 10.1631 12.8696 10.206C12.8333 10.2489 12.7889 10.2843 12.7389 10.31C12.6889 10.3358 12.6344 10.3514 12.5783 10.3561C12.5223 10.3608 12.4659 10.3544 12.4124 10.3372C12.3588 10.3201 12.3092 10.2926 12.2663 10.2563C12.2234 10.22 12.188 10.1756 12.1623 10.1256C12.1365 10.0756 12.1209 10.0211 12.1162 9.96506V9.89396ZM10.5876 9.89396H11.1919C11.1802 10.0223 11.194 10.1518 11.2323 10.2748C11.2707 10.3979 11.3329 10.5122 11.4154 10.6113C11.5821 10.8113 11.8214 10.9369 12.0807 10.9604C12.3399 10.984 12.598 10.9036 12.798 10.737C12.998 10.5703 13.1236 10.331 13.1471 10.0717V9.89396H13.7515C13.7524 10.1043 13.7116 10.3127 13.6315 10.5072C13.5515 10.7017 13.4337 10.8784 13.2849 11.0271C13.1362 11.1759 12.9595 11.2937 12.765 11.3737C12.5705 11.4538 12.3621 11.4946 12.1517 11.4937C11.7325 11.488 11.3326 11.3165 11.0395 11.0167C10.7463 10.7169 10.5839 10.3132 10.5876 9.89396Z" fill="#090909"/>
<path d="M24.5583 2.71322C21.9438 1.23266 18.9726 0.499318 15.9694 0.593358C12.9663 0.687398 10.0468 1.6052 7.53004 3.24644C7.34872 3.10549 7.14421 2.99723 6.9257 2.92651L6.28581 2.64212L5.64592 3.0687C5.46817 3.17534 4.68608 3.85075 4.97047 5.27267L4.86382 5.37931C3.32827 6.90201 2.10824 8.7127 1.27363 10.7077C0.439026 12.7026 0.00623974 14.8426 6.69763e-05 17.0051C-0.00610578 19.1676 0.414456 21.31 1.23766 23.3097C2.06087 25.3094 3.27054 27.127 4.79737 28.6584C6.32421 30.1899 8.13822 31.405 10.1355 32.2343C12.1327 33.0636 14.274 33.4907 16.4366 33.4911C18.5991 33.4916 20.7406 33.0653 22.7381 32.2369C24.7357 31.4084 26.5502 30.194 28.0777 28.6632C30.8614 25.8698 32.5622 22.1785 32.8769 18.2476L32.9835 17.3945L33.1968 17.0746L34.2989 5.20157L34.5122 3.53082L24.5583 2.71322ZM30.3529 19.7051L29.5352 20.8782H27.6156L26.7979 20.0961L26.0158 20.1317L20.2923 18.3543L16.7729 18.1054L16.8085 19.2785L22.1054 20.9848L22.2476 21.0559L22.2831 21.1981L24.3805 27.3834L25.0915 29.2675L24.5583 29.5874L21.7143 21.518L16.2752 19.634L16.2041 17.6078L20.3634 17.9633L26.0158 19.6696L26.9046 19.5985L27.7933 20.4161H29.2508L30.0685 19.2785H30.3173L31.8815 16.5413L32.9124 4.775L24.7716 4.09959L14.5689 5.62815L14.1067 5.69924C13.9923 5.42432 13.8493 5.1622 13.6801 4.91719C13.5505 4.72823 13.3805 4.57039 13.1824 4.45507C13.1338 4.41058 13.0706 4.38531 13.0047 4.38397C12.8225 4.30892 12.6181 4.30892 12.4359 4.38397L12.6492 5.91253L12.1515 6.01917L8.09883 6.58794V6.55239C8.01535 6.00068 7.80911 5.47473 7.49533 5.01331C7.18155 4.55189 6.76822 4.16676 6.28581 3.8863C6.25327 3.93588 6.21765 3.98337 6.17916 4.02849C6.0778 4.2388 6.029 4.47058 6.03696 4.7039C6.07251 4.91719 6.10806 5.09493 6.14361 5.27267C6.21471 5.73479 6.21471 6.23246 6.25026 6.69458C6.25026 7.33444 6.39246 7.76102 6.67685 7.93876C6.74769 7.99036 6.83009 8.02382 6.91685 8.03622C7.00362 8.04861 7.09209 8.03956 7.17455 8.00985L7.24565 7.97431L8.38323 20.025H8.34768L3.01525 23.7576C2.9086 23.5798 2.80195 23.4021 2.73085 23.2599L7.74334 19.8473L6.7835 8.47198C6.56357 8.47221 6.35022 8.39692 6.17916 8.25869C5.93031 8.00985 5.78811 7.47663 5.82366 6.73013C5.82366 6.48129 5.78811 6.26801 5.78811 6.01917C5.7701 5.73287 5.73448 5.44795 5.68146 5.16602C5.61574 4.86238 5.60371 4.54957 5.64592 4.24178C5.67393 4.02557 5.77414 3.82515 5.93031 3.67301C6.02746 3.56313 6.1493 3.47785 6.28581 3.42418L6.4991 3.49527C7.00658 3.73846 7.45059 4.09626 7.79608 4.54044C8.14157 4.98462 8.37909 5.50302 8.48988 6.05472L12.1515 5.5215L12.0093 4.17068C12.0093 4.13513 12.4003 4.06404 12.4359 4.02849C12.5881 3.99901 12.7431 3.98708 12.898 3.99294C13.1222 4.00184 13.3413 4.06269 13.5379 4.17068C13.8908 4.41244 14.173 4.74369 14.3556 5.13048L24.736 3.49527L33.5879 4.17068L32.4147 16.7546L30.6728 19.7051H30.3529ZM3.47739 24.5396L8.56098 21.0204H8.59653L11.5827 21.838L13.5024 22.3356L14.1778 22.6911L13.8579 28.4143L13.6801 31.6847C12.4176 31.4395 11.1885 31.0458 10.0185 30.5117C7.54775 29.3344 5.43668 27.518 3.90399 25.2506C3.79734 25.0728 3.65514 24.824 3.47739 24.5396ZM8.31213 7.97431L9.02312 8.15204L8.56098 7.44109L24.7716 4.95274L28.9664 5.27267L28.6465 16.1148H28.8242L29.5708 5.34376L32.1659 5.5215L32.0237 6.80123H30.9572L30.9217 8.75636L31.4549 8.22314L31.526 7.40554L31.9526 7.33444L31.2061 16.3636L29.9263 18.7453V17.5367L30.4951 17.2878L28.7887 16.6835L25.9803 17.43L26.9046 17.6789V18.7453L26.0869 18.8875L20.6123 17.3234L15.4576 16.8613L15.5998 20.1317L14.64 21.0204L14.0356 21.0559L10.694 19.9895L9.48527 19.8117L9.23642 19.7762L8.20548 8.72081H8.77428L8.31213 7.97431ZM12.9336 4.91719C12.9336 4.91719 13.3957 4.98828 13.6801 5.80588L13.0758 5.91253L12.9336 4.91719ZM29.5708 19.0652L28.9664 19.8473H28.0777L27.4023 19.1719L27.3667 19.1363V17.5367L28.4687 17.2878L28.682 18.7809L28.9664 17.3234L29.5708 17.5011V19.0652ZM15.9553 20.2383L16.844 20.4872L15.2798 21.7313L14.9244 21.2692L15.9553 20.2383ZM13.7512 21.3048L13.4313 21.9446L8.98757 20.736L9.76966 20.2028L10.4807 20.3094L13.7512 21.3048ZM17.3062 20.6649L21.2166 22.0513L23.8828 29.9429C21.7634 31.1485 19.3869 31.8309 16.9507 31.9336L14.9599 22.62L17.3062 20.6649ZM7.63669 6.69458L7.35229 6.76568C7.35229 6.76568 7.28119 7.08561 7.24565 7.2989C7.24565 7.33444 7.0679 7.26335 7.0679 7.26335C6.96125 7.2278 6.9257 7.1567 6.8546 7.08561C6.72417 6.78304 6.66342 6.45502 6.67685 6.12582C6.67081 5.86383 6.64705 5.60255 6.60575 5.34376C6.5702 5.09493 6.53465 4.81054 6.53465 4.775C6.53465 4.63281 6.81905 5.02383 6.9257 5.16602C7.10115 5.3814 7.24481 5.62082 7.35229 5.87698C7.41523 6.00114 7.46297 6.13243 7.49449 6.26801C7.55774 6.40441 7.60544 6.54751 7.63669 6.69458Z" fill="#090909"/>
</svg>
