<svg width="70" height="67" viewBox="0 0 70 67" fill="none" xmlns="http://www.w3.org/2000/svg">
<g clip-path="url(#clip0_11_539)">
<path d="M50.3984 5.8941L29.2199 9.20618C28.7848 8.41314 28.2771 7.69405 27.5518 7.26208C27.1165 7.0461 26.6814 6.90218 26.2463 6.90218C25.9561 6.90218 25.5933 6.90218 25.3034 6.97402C25.2308 7.0461 24.4341 7.19001 24.4341 7.26208L24.7231 9.99828L17.2519 11.0784C16.3096 7.33462 13.6987 6.11008 13.191 5.8941L12.7558 5.74995C12.5383 5.82203 12.3205 5.96594 12.0306 6.254C11.6678 6.61413 11.5229 6.97402 11.4503 7.40623C11.3051 8.05418 11.4503 8.70214 11.5229 9.27825C11.6678 9.85437 11.6678 10.4302 11.7404 11.0064C11.7404 11.5104 11.8128 11.9424 11.8128 12.4464C11.7404 13.9585 12.0306 15.0387 12.5383 15.5427C12.9734 15.9026 13.4811 15.9747 13.7713 15.9747L15.7295 39.0163L5.50293 45.929C5.64789 46.2168 5.86545 46.5769 6.083 46.937L16.9625 39.3764H17.0351L14.7141 14.9666L14.5689 15.0387C14.4007 15.0988 14.2202 15.1171 14.0432 15.092C13.8663 15.0669 13.6982 14.9991 13.5537 14.8946C12.9734 14.5347 12.6832 13.6705 12.6832 12.3755C12.6106 11.4393 12.6107 10.4312 12.4657 9.49517C12.3931 9.13527 12.3205 8.77514 12.2481 8.34317C12.2481 7.83913 12.3205 7.40716 12.5383 6.97496C12.6106 6.90312 12.7558 6.6869 12.7558 6.6869C13.1184 6.90312 15.7295 8.2711 16.4548 12.0875V12.1593L24.7231 11.0073L25.7385 10.7913L25.3034 7.69405C25.4484 7.62221 25.9561 7.47807 26.4638 7.69405C26.5983 7.69681 26.7273 7.74804 26.8266 7.8382C27.2617 8.05418 27.5518 8.41431 27.8417 8.77421C28.2045 9.27825 28.4947 9.85437 28.711 10.3584L29.6539 10.2143L50.4698 7.11817L67.0791 8.48615L64.9768 32.3198L61.7853 37.8643H61.2778L59.6098 40.1685H56.6359L54.8228 38.5125L53.0095 38.6566L41.4773 35.2004L32.9915 34.4804L33.1364 38.5855L44.2335 42.4018L50.0365 58.7469L51.1243 58.099L49.6738 54.2826L45.3946 41.7536L45.3222 41.4658L45.032 41.3217L34.2247 37.8654L34.1518 35.4873L41.3324 35.9913L53.009 39.5915L54.6048 39.5194L56.2729 41.1036H60.1894L61.8575 38.7275H62.5101L66.0641 32.7511L68.4577 7.26208L50.3984 5.8941Z" fill="white"/>
<path d="M23.563 43.0486L17.4705 41.3926H17.3979L7.02637 48.521C7.38888 49.0971 7.67904 49.6012 7.89566 49.9611C11.0145 54.5695 15.3668 58.2413 20.3711 60.6178C22.7583 61.6998 25.2662 62.4974 27.8423 62.9941L28.205 56.3699L28.8577 44.7777L27.4798 44.0576L23.563 43.0486Z" fill="white"/>
<path d="M14.0615 9.27826C13.8439 8.9902 13.2627 8.1981 13.2627 8.48523C13.2627 8.5573 13.3351 9.13341 13.4077 9.63745C13.4803 10.1415 13.5528 10.7174 13.5528 11.2214C13.6252 11.8696 13.5528 12.5896 13.9154 13.1655C14.0603 13.3097 14.1329 13.4536 14.3505 13.5256C14.3505 13.5256 14.7132 13.6696 14.7132 13.5977C14.7858 13.1655 14.9308 12.5176 14.9308 12.5176L15.5111 12.3737C15.4385 12.0856 15.3659 11.7975 15.2209 11.5095C15.1566 11.2345 15.0592 10.9683 14.9308 10.7164C14.7144 10.2143 14.4243 9.71023 14.0615 9.27826Z" fill="white"/>
<path d="M35.2401 40.6726L30.4531 44.6328L34.5148 63.4981C39.5191 63.2822 44.3063 61.9139 48.6584 59.4658L43.2183 43.4806L35.2401 40.6726Z" fill="white"/>
<path d="M34.2976 40.3124L32.4843 39.8084L30.3809 41.8966L31.1061 42.8326L34.2976 40.3124Z" fill="white"/>
<path d="M26.3193 8.77422L26.6093 10.7904L27.8422 10.5744C27.2622 8.91813 26.3193 8.77422 26.3193 8.77422Z" fill="white"/>
<path d="M57.2162 39.0165H59.0294L60.2624 37.4323V34.2642L59.0294 33.904L58.4491 36.8562L58.014 33.832L55.7656 34.336V37.5762L55.838 37.6483L57.2162 39.0165Z" fill="white"/>
<path d="M27.9874 41.9687L21.3146 39.9525L19.864 39.7365L18.2686 40.8165L27.3345 43.2646L27.9874 41.9687Z" fill="white"/>
<path d="M52.4295 13.2026L53.7351 13.5266L53.88 15.1826L55.2582 16.5508V12.1586H50.0361L51.1239 12.8786L52.4295 13.2026Z" fill="black"/>
<path d="M26.7543 19.215C26.6817 20.2951 25.6663 21.0872 24.5783 21.0151C23.4902 20.9431 22.6926 19.935 22.7652 18.8548H21.5322C21.5322 20.655 22.9828 22.0951 24.7235 22.0951C25.1526 22.0969 25.5778 22.0143 25.9746 21.8521C26.3714 21.6899 26.7319 21.4513 27.0353 21.15C27.3388 20.8488 27.5791 20.4909 27.7425 20.0969C27.9059 19.703 27.9891 19.2808 27.9873 18.8548H26.7543V19.215Z" fill="white"/>
<path d="M31.4688 32.9682L41.9856 33.9043L53.155 37.0734L54.8231 36.7853V34.6243L52.9372 34.1202L58.667 32.6081L62.1486 33.8312L60.9882 34.3353V36.7844L63.5994 31.9602L65.122 13.6705L64.6867 13.7426L64.2527 13.8146L64.1078 15.4707L63.0198 16.5508L63.0924 12.5906H65.2682L65.5583 9.99828L60.2636 9.63838L58.7405 31.4559H58.3778L59.0307 9.49424L50.4722 8.84628L17.3981 13.8865L18.3409 15.3268L16.8904 14.9666L17.8332 16.4778H16.6729L18.7763 38.8714L19.284 38.9435L21.7509 39.3034L28.5687 41.4637L29.8017 41.3917L31.7602 39.5924L31.4688 32.9682ZM50.0364 12.1586H55.2584V16.5508L53.8803 15.1826L53.7353 13.5266L52.4297 13.2026L51.1241 12.8786L50.0364 12.1584V12.1586ZM25.8843 24.5439C26.4646 23.9678 26.8997 23.3198 27.2624 22.5996C26.5372 23.2478 25.5943 23.7518 24.6513 23.8957C25.5206 23.5358 26.3194 22.9597 26.8997 22.2397C25.6667 23.0327 24.2162 23.1757 22.838 22.7437C23.4183 22.8158 23.9986 22.8158 24.5787 22.6716C22.4755 22.5277 20.8797 20.7996 20.8797 18.7114V18.3515H28.6401L28.6704 18.5343C29.033 20.9095 27.9149 23.2473 25.884 24.5434L25.8843 24.5439Z" fill="white"/>
<path d="M50.0302 4.30656C49.8671 4.21482 49.7035 4.12463 49.5394 4.036C49.4825 4.00521 49.4254 3.97559 49.3688 3.9455C49.2588 3.88672 49.1489 3.82888 49.0385 3.7708C48.9708 3.73581 48.9027 3.70083 48.835 3.66701C48.7349 3.61593 48.6351 3.56485 48.5348 3.51493C48.4615 3.47831 48.3877 3.44286 48.3139 3.40694C48.2199 3.36029 48.1238 3.31364 48.0285 3.26839C47.9516 3.23177 47.8743 3.19585 47.797 3.1597C47.7031 3.11632 47.6117 3.07293 47.5186 3.03048C47.4395 2.99433 47.3598 2.95888 47.2804 2.92342C47.189 2.8826 47.0976 2.84179 47.0062 2.8019C46.9252 2.76676 46.8442 2.73185 46.7631 2.69717C46.6724 2.65846 46.5815 2.62005 46.4905 2.58195C46.4083 2.54766 46.3261 2.51408 46.2434 2.48049C46.1531 2.44364 46.0629 2.40733 45.9727 2.37157C45.8891 2.33821 45.8054 2.30556 45.7218 2.2729C45.6318 2.23815 45.5421 2.20293 45.4518 2.16981C45.3674 2.13778 45.2828 2.10613 45.1981 2.07488C45.1087 2.04176 45.0189 2.00918 44.9289 1.97715C44.8435 1.94605 44.758 1.91557 44.6723 1.88572C44.5826 1.85446 44.4928 1.82391 44.4031 1.79242C44.3171 1.76334 44.2309 1.73434 44.1446 1.70542C44.0542 1.67556 43.9638 1.64625 43.8733 1.61748C43.7873 1.58973 43.7013 1.56174 43.6148 1.53492C43.5239 1.50623 43.4325 1.4787 43.3413 1.45118C43.2554 1.42506 43.1696 1.39847 43.0829 1.37328C42.9908 1.34599 42.8985 1.3201 42.8064 1.29374C42.7206 1.26925 42.6351 1.24429 42.5494 1.2205C42.4554 1.19438 42.3598 1.16942 42.2648 1.144C42.1814 1.12067 42.0983 1.09875 42.0149 1.07706C41.9051 1.0486 41.7952 1.02154 41.6859 0.994254C41.5581 0.963155 41.4302 0.932055 41.302 0.900956C41.1846 0.873433 41.0692 0.845676 40.9527 0.819553C40.8705 0.800893 40.7882 0.783867 40.7058 0.765907C40.608 0.744682 40.5105 0.723223 40.4128 0.70293C40.3275 0.685204 40.2422 0.668644 40.1569 0.651617C40.063 0.632491 39.9666 0.613365 39.8712 0.595171C39.7845 0.578611 39.6979 0.563217 39.6112 0.547356C39.5172 0.530096 39.4232 0.512836 39.3292 0.496276C39.2418 0.481115 39.1544 0.466887 39.067 0.452426C38.9731 0.437031 38.8791 0.421404 38.7851 0.405777C38.6977 0.392015 38.6101 0.379187 38.5227 0.366125C38.4287 0.35213 38.3347 0.338136 38.2407 0.324841C38.1535 0.312712 38.0663 0.300972 37.979 0.289621C37.8841 0.277025 37.7891 0.264819 37.694 0.253001C37.6071 0.242272 37.5202 0.231931 37.4332 0.221979C37.3374 0.211017 37.2415 0.200055 37.1457 0.190025C37.0594 0.180695 36.9732 0.171754 36.8872 0.163202C36.7904 0.153561 36.6936 0.144464 36.5968 0.135912C36.5113 0.128215 36.4258 0.120518 36.3401 0.112588C36.2423 0.104346 36.1444 0.0965714 36.0464 0.089263C35.9618 0.0831987 35.8772 0.0769013 35.7926 0.0713034C35.6933 0.0647726 35.5939 0.0589415 35.4947 0.0531103C35.4111 0.0484455 35.3277 0.043547 35.2443 0.0393486C35.143 0.0342172 35.0418 0.0302523 34.9403 0.0260538C34.859 0.0227884 34.7777 0.0190564 34.6964 0.0164907C34.5921 0.012992 34.4878 0.0104265 34.3832 0.00786077C34.3047 0.00599481 34.226 0.00366223 34.1483 0.00226277C34.039 0.000396806 33.9295 -0.000302915 33.8194 -0.00100265C33.7458 -0.00100265 33.6723 -0.00286865 33.5987 -0.00286865C33.5196 -0.00286865 33.4406 -0.00286848 33.3615 -0.00123577C33.2459 -0.00123577 33.1305 -0.00123601 33.0149 0.00179618C32.9313 0.0029624 32.8476 0.00552822 32.7642 0.00739418C32.6538 0.0101931 32.5434 0.0125257 32.4332 0.0162576C32.347 0.0192898 32.2607 0.0230214 32.1748 0.0265201C32.0672 0.0309517 31.9598 0.0353834 31.8524 0.040748C31.7641 0.0454129 31.6759 0.0504668 31.5879 0.0559092C31.4824 0.0619735 31.3764 0.0682711 31.2716 0.0755017C31.1824 0.081566 31.0931 0.0883301 31.0038 0.0950942C30.8996 0.103024 30.7956 0.111344 30.6918 0.120052C30.6014 0.127826 30.5109 0.13599 30.4202 0.144542C30.3178 0.154183 30.2154 0.164135 30.1131 0.174398C30.0218 0.183883 29.9305 0.193679 29.8392 0.203786C29.738 0.214982 29.6368 0.226722 29.5354 0.239006C29.4433 0.250047 29.3512 0.261476 29.2591 0.273293C29.1589 0.2862 29.0586 0.299572 28.9584 0.313411C28.8661 0.32624 28.7737 0.339069 28.6814 0.352597C28.5815 0.367058 28.4817 0.382452 28.3818 0.399246C28.2894 0.413396 28.1972 0.427935 28.1051 0.442862C28.0057 0.45919 27.9066 0.47645 27.8074 0.493477C27.7148 0.50957 27.6223 0.525431 27.5297 0.542225C27.4313 0.560185 27.3331 0.579078 27.2349 0.597737C27.1421 0.615464 27.0492 0.632957 26.9564 0.651617C26.858 0.67121 26.7598 0.691968 26.6616 0.712494C26.5697 0.731853 26.4776 0.750512 26.3858 0.770571C26.2862 0.792263 26.187 0.815121 26.0879 0.837746C25.9974 0.858272 25.9067 0.87833 25.8163 0.899556C25.7148 0.92288 25.6133 0.949004 25.5108 0.973961C25.4232 0.995653 25.3353 1.01641 25.2479 1.03857C25.1281 1.06913 25.0085 1.10131 24.889 1.13303C24.7497 1.17035 24.6105 1.20845 24.4712 1.24732C24.3584 1.27881 24.2454 1.31007 24.1327 1.34295C24.0443 1.36884 23.956 1.3959 23.8679 1.42249C23.7694 1.45211 23.6708 1.48127 23.5726 1.51159C23.4819 1.53981 23.3917 1.5692 23.3012 1.59812C23.2056 1.62868 23.11 1.659 23.0146 1.69142C22.9237 1.72128 22.8332 1.75253 22.7425 1.78332C22.6485 1.81528 22.5532 1.84723 22.4589 1.88012C22.3685 1.91161 22.2783 1.94426 22.188 1.97668C22.0941 2.0105 22.0001 2.04409 21.9061 2.07884C21.8159 2.11196 21.7257 2.14625 21.6357 2.1803C21.5457 2.21436 21.4492 2.25028 21.3564 2.28736C21.2636 2.32445 21.1769 2.35734 21.0873 2.39372C20.9943 2.43089 20.9014 2.46828 20.8087 2.50591C20.7199 2.5423 20.6313 2.57939 20.5427 2.61647C20.4488 2.65566 20.3569 2.69484 20.2643 2.73473C20.1765 2.77251 20.0888 2.81077 20.0012 2.84948C19.9082 2.89038 19.8154 2.93174 19.7228 2.97357C19.6362 3.01276 19.5496 3.05225 19.4629 3.09206C19.369 3.13529 19.276 3.17883 19.1841 3.22268C19.0988 3.26303 19.0137 3.30338 18.9287 3.34443C18.8347 3.38991 18.7407 3.43609 18.6468 3.48228C18.5634 3.52356 18.4799 3.56485 18.3968 3.60683C18.3028 3.65348 18.2088 3.70339 18.1148 3.75214C18.0333 3.79436 17.952 3.83634 17.871 3.87903C17.7749 3.92987 17.679 3.98165 17.5834 4.0332C17.5047 4.07589 17.4258 4.1181 17.3473 4.16125C17.2488 4.2156 17.1509 4.27111 17.0529 4.32639C16.978 4.36861 16.903 4.41036 16.8283 4.45328C16.7252 4.51252 16.6227 4.57293 16.5201 4.63334C16.451 4.67416 16.3817 4.71404 16.3126 4.75533C16.1989 4.82344 16.0856 4.89318 15.9726 4.96268C15.9158 4.99767 15.8585 5.03266 15.8018 5.06718C15.6319 5.17291 15.463 5.28021 15.2951 5.38905C15.1114 5.2444 14.9139 5.11778 14.7056 5.01096C14.4986 4.90416 14.2833 4.81385 14.0619 4.74087L12.7565 4.16499L11.4509 5.02799C11.0882 5.24398 9.49269 6.61219 10.0728 9.4923L9.96398 9.60029L9.8552 9.70829C8.44385 11.1011 7.15993 12.6156 6.01859 14.2339C5.38197 15.137 4.79136 16.0711 4.249 17.0329C4.11446 17.2717 3.98305 17.5118 3.85477 17.7531C3.59821 18.2352 3.3545 18.7225 3.12363 19.2151C1.75156 22.1428 0.817591 25.2538 0.351303 28.4495C0.274241 28.9782 0.209789 29.5077 0.157945 30.0379C0.00278434 31.6296 -0.0374152 33.2302 0.0376541 34.8276C0.0627146 35.3599 0.10054 35.8915 0.151131 36.4225C0.201722 36.9535 0.265079 37.4833 0.3412 38.0119C0.417321 38.5405 0.506208 39.0674 0.60786 39.5926C0.709512 40.1177 0.823929 40.6407 0.951111 41.1616C1.06435 41.6251 1.18934 42.0864 1.32303 42.5457C1.41442 42.8603 1.50887 43.1754 1.60989 43.4866C1.69259 43.7427 1.77874 43.998 1.86833 44.2526C2.10797 44.9399 2.37267 45.6212 2.66243 46.2965C2.85039 46.7383 3.04907 47.1767 3.25848 47.6118C3.37799 47.8605 3.50094 48.1089 3.62734 48.3567C3.93872 48.9664 4.26936 49.5687 4.61927 50.1635C4.94537 50.7142 5.28933 51.257 5.65114 51.7917C5.86619 52.111 6.08735 52.4274 6.31462 52.741C7.03682 53.7376 7.81369 54.6939 8.64172 55.6058C9.00448 56.0048 9.37843 56.3972 9.76358 56.783L9.7819 56.8016L9.78636 56.8058C9.98889 57.008 10.1934 57.2071 10.4 57.4034C10.4625 57.4624 10.5262 57.52 10.588 57.5779C10.7346 57.715 10.881 57.8524 11.0294 57.9863C11.0884 58.0394 11.1488 58.0905 11.208 58.1432C11.3617 58.2797 11.5153 58.4166 11.6708 58.5498C11.7279 58.5988 11.7862 58.6456 11.8435 58.6942C12.0028 58.8287 12.1621 58.9636 12.3233 59.0946C12.3752 59.1366 12.4278 59.1767 12.4797 59.2185C12.648 59.3538 12.8162 59.4886 12.9863 59.6201C13.0394 59.6612 13.0937 59.7001 13.147 59.741C13.3171 59.8706 13.4874 60.0003 13.6594 60.1265C13.7132 60.1659 13.7679 60.2033 13.822 60.2431C13.9947 60.3682 14.1676 60.4929 14.3424 60.6145C14.3924 60.6492 14.4432 60.6821 14.4932 60.7164C14.6732 60.84 14.8531 60.9632 15.035 61.0828C15.0792 61.1117 15.124 61.1393 15.1682 61.1682C15.3562 61.2909 15.5458 61.4131 15.7361 61.5316C15.7856 61.5624 15.8359 61.5915 15.8855 61.6221C16.0718 61.7368 16.2583 61.8509 16.4463 61.9617C16.4949 61.9901 16.5443 62.0172 16.5931 62.0457C16.783 62.156 16.973 62.2661 17.1645 62.3722C17.2141 62.3997 17.2641 62.4254 17.3139 62.4527C17.5056 62.5579 17.6976 62.6626 17.8909 62.7638C17.9379 62.789 17.9877 62.8126 18.0359 62.8375C18.2316 62.9388 18.4276 63.0393 18.6247 63.1365C18.6717 63.1599 18.7205 63.1818 18.7682 63.2051C18.9668 63.3014 19.1655 63.3973 19.3654 63.4899C19.4174 63.5132 19.4698 63.5366 19.5217 63.5599C19.7183 63.6492 19.915 63.7383 20.1128 63.8239C20.1706 63.8491 20.2303 63.8722 20.2871 63.8969C20.4798 63.979 20.6727 64.0602 20.8665 64.139C20.9292 64.1645 20.9927 64.1878 21.0545 64.2127C21.2443 64.2881 21.4344 64.3634 21.6254 64.4352C21.6911 64.4597 21.7576 64.4819 21.8234 64.5069C22.0114 64.5768 22.201 64.6468 22.3908 64.7121C22.4613 64.7368 22.5339 64.7588 22.6053 64.784C22.7904 64.8469 22.9753 64.9101 23.1614 64.9706C23.2373 64.9939 23.3139 65.0172 23.39 65.0405C23.5721 65.0977 23.7542 65.1548 23.937 65.2089C24.0178 65.2322 24.0991 65.2542 24.1801 65.2773C24.3587 65.3286 24.5372 65.3801 24.7167 65.4284C24.8051 65.4517 24.8937 65.4734 24.9822 65.4963C25.1549 65.5413 25.3276 65.5868 25.5007 65.629C25.5947 65.6523 25.6887 65.6719 25.7827 65.6938C25.9511 65.7333 26.1196 65.7736 26.2887 65.8105C26.3888 65.8324 26.4894 65.8515 26.5895 65.8725C26.7539 65.9066 26.916 65.9425 27.0796 65.973C27.186 65.9936 27.2929 66.0113 27.3995 66.0309C27.5577 66.0598 27.7155 66.0897 27.8739 66.1162C27.9853 66.1349 28.0971 66.151 28.2087 66.1687C28.3626 66.192 28.5165 66.2184 28.6708 66.2406C28.7864 66.2571 28.9025 66.2711 29.0183 66.2872C29.1689 66.3073 29.3193 66.3285 29.4701 66.3465C29.5902 66.3609 29.7107 66.3723 29.8312 66.3854C29.9776 66.4015 30.1242 66.4185 30.2708 66.4321C30.3953 66.444 30.5198 66.4531 30.6443 66.4635C30.7874 66.4757 30.9305 66.489 31.0738 66.4992C31.2009 66.5083 31.328 66.5146 31.4554 66.5226C31.5963 66.531 31.7373 66.5407 31.8783 66.5475C32.0087 66.5538 32.139 66.5571 32.2692 66.5617C32.4071 66.5669 32.545 66.5732 32.6832 66.5764C32.8143 66.5797 32.9454 66.5799 33.0765 66.5816C33.2137 66.5834 33.3511 66.5865 33.4886 66.5865C33.626 66.5865 33.7597 66.5837 33.8952 66.582C34.0308 66.5804 34.1603 66.5804 34.2925 66.5774C34.4297 66.5741 34.5669 66.568 34.7042 66.5631C34.835 66.5587 34.9656 66.5554 35.0963 66.5494C35.2354 66.5429 35.374 66.5333 35.5128 66.5261C35.6416 66.5184 35.7713 66.5123 35.8995 66.5027C36.0405 66.4927 36.1815 66.4794 36.3224 66.468C36.4486 66.4575 36.575 66.4486 36.7012 66.4367C36.8454 66.423 36.9894 66.4064 37.1337 66.3901C37.2563 66.377 37.379 66.3653 37.5016 66.3509C37.6485 66.3336 37.7951 66.3131 37.9419 66.2937C38.0612 66.2781 38.1808 66.2639 38.3002 66.2471C38.4524 66.2254 38.6042 66.2004 38.756 66.1771C38.8694 66.1594 38.9829 66.1433 39.0962 66.1244C39.2541 66.0981 39.4112 66.0684 39.5686 66.04C39.6758 66.0206 39.7831 66.0029 39.89 65.9824C40.0529 65.9513 40.215 65.9168 40.3773 65.8832C40.4786 65.8625 40.5798 65.8434 40.6809 65.8214C40.8493 65.785 41.0173 65.7454 41.1853 65.7062C41.2793 65.6845 41.3732 65.6642 41.4672 65.6416C41.6399 65.5998 41.8121 65.5548 41.9841 65.5103C42.0731 65.4869 42.1622 65.4662 42.251 65.4426C42.43 65.396 42.6081 65.3437 42.7864 65.2931C42.8677 65.2698 42.9495 65.2483 43.0308 65.2248C43.2133 65.1714 43.3949 65.1145 43.5768 65.058C43.6534 65.0347 43.7302 65.0114 43.8065 64.988C43.9928 64.9288 44.1784 64.8658 44.3641 64.8031C44.4345 64.7798 44.5064 64.7564 44.5771 64.7331C44.7672 64.6676 44.9561 64.5985 45.145 64.5295C45.211 64.5062 45.2773 64.4828 45.3431 64.4583C45.5352 64.3865 45.7265 64.3114 45.9177 64.2361C45.9795 64.2127 46.0418 64.1894 46.1033 64.1642C46.2983 64.0861 46.4922 64.0047 46.6858 63.9228C46.7431 63.8995 46.8006 63.8762 46.8577 63.8514C47.0537 63.7672 47.2482 63.6798 47.443 63.5918C47.497 63.5685 47.5518 63.5452 47.606 63.5193C47.802 63.4295 47.997 63.336 48.1915 63.2422C48.2434 63.2172 48.2958 63.1937 48.3475 63.1683C48.5449 63.0719 48.7408 62.9721 48.9365 62.8718C48.9849 62.8469 49.0338 62.8233 49.0819 62.7983C49.2816 62.6945 49.4799 62.5884 49.678 62.4795C49.7217 62.4562 49.7656 62.4328 49.8091 62.4095C50.0081 62.2997 50.2057 62.1865 50.403 62.0727C50.4446 62.0494 50.4869 62.0261 50.5285 62.0013C50.7218 61.8887 50.9135 61.7723 51.105 61.6554C51.1499 61.6279 51.1952 61.6018 51.2401 61.5743C51.4302 61.4576 51.6186 61.3359 51.807 61.2146C51.8521 61.1854 51.898 61.1577 51.9428 61.1283C52.127 61.0082 52.3093 60.8846 52.4917 60.7605C52.5398 60.7276 52.5887 60.6961 52.6369 60.663C52.8187 60.538 52.9987 60.4094 53.1784 60.2802C53.2254 60.2462 53.274 60.2135 53.3215 60.179C53.4904 60.0565 53.6574 59.9304 53.8245 59.8042C53.8818 59.761 53.9398 59.7195 53.9967 59.6759C54.1633 59.5485 54.3277 59.4177 54.4924 59.2868C54.5486 59.2421 54.6054 59.1991 54.6614 59.1541C54.8289 59.0191 54.9943 58.8808 55.1597 58.7422C55.2116 58.6988 55.2642 58.6568 55.3159 58.6132C55.4719 58.481 55.6258 58.345 55.7799 58.2095C55.8396 58.157 55.9002 58.1061 55.9596 58.0532C56.1211 57.9093 56.2801 57.7619 56.4392 57.6145C56.4899 57.5678 56.5416 57.5212 56.5921 57.4745C56.8011 57.2786 57.008 57.0794 57.2131 56.8769C58.4473 55.6524 59.5834 54.334 60.611 52.9339C64.2625 47.9572 66.4989 42.0206 67.009 35.7764L67.1178 34.9134L67.2266 34.0504L67.2447 34.0236V34.0185L70.0003 5.84178L50.0363 4.30983L50.0302 4.30656ZM28.204 56.3696L27.8412 62.9938C25.2651 62.4971 22.7573 61.6995 20.3701 60.6175C15.3658 58.2414 11.0139 54.5692 7.89461 49.9608C7.67705 49.6009 7.3869 49.0978 7.02532 48.5207L17.398 41.3925H17.4706L23.5632 43.0485L27.4797 44.0566L28.8576 44.7767L28.204 56.3696ZM18.2685 40.8164L19.864 39.7362L21.3145 39.9525L27.9869 41.9686L27.334 43.2645L18.2685 40.8164ZM28.5677 41.4646L21.7499 39.3043L19.283 38.9444L18.7753 38.8723L16.6728 16.4778H17.8332L16.8903 14.9656L18.3409 15.3258L17.398 13.8864L50.4714 8.84621L59.0299 9.49417L58.377 31.4558H58.7397L60.2629 9.63831L65.5575 9.99821L65.2674 12.5905H63.0916L63.019 16.5508L64.107 15.4706L64.2519 13.8146L64.6871 13.7425L65.1224 13.6704L63.5993 31.9599L60.9881 36.7841V34.335L62.1485 33.8309L58.6671 32.6069L52.9373 34.119L54.8232 34.623V36.7831L53.1551 37.0712L41.9857 33.903L31.4688 32.9682L31.7601 39.5923L29.8018 41.3925L28.5677 41.4646ZM26.3193 8.77414C26.3193 8.77414 27.2621 8.91805 27.8422 10.5743L26.6092 10.7903L26.3193 8.77414ZM55.7661 34.3359L58.0145 33.8319L58.4496 36.8561L59.0299 33.9039L60.2629 34.2641V37.4322L59.0299 39.0162H57.2166L55.8387 37.6482L55.7661 37.5762V34.3359ZM32.4832 39.8083L34.2965 40.3124L31.1051 42.8326L30.3798 41.8966L32.4832 39.8083ZM34.5141 63.4981L30.4533 44.6328L35.2403 40.6725L43.2185 43.4805L48.6581 59.4648C44.306 61.9139 39.5195 63.2821 34.515 63.4981H34.5141ZM66.0652 32.752L62.5113 38.7293H61.8586L60.1905 41.1054H56.274L54.6059 39.5212L53.0102 39.5933L41.3335 35.9931L34.1523 35.4872L34.2249 37.8633L45.0322 41.3195L45.3224 41.4636L45.3947 41.7515L49.674 54.2805L51.1245 58.0968L50.0367 58.7448L44.2337 42.3997L33.1368 38.5842L32.9919 34.4791L41.4778 35.1992L53.0099 38.6554L54.8232 38.5112L56.6363 40.1673H59.6102L61.2783 37.863H61.7858L64.977 32.3186L67.0804 8.48492L50.4711 7.11693L29.6552 10.213L28.7124 10.3572C28.4949 9.85313 28.2047 9.27701 27.8431 8.77297C27.5532 8.41308 27.263 8.05295 26.8279 7.83696C26.7286 7.74681 26.5997 7.69557 26.4652 7.69282C25.9575 7.47683 25.4498 7.62098 25.3048 7.69282L25.7399 10.7891L24.7245 11.0051L16.4552 12.1583V12.0865C15.7299 8.2701 13.119 6.90212 12.7563 6.6859C12.7563 6.6859 12.6111 6.90211 12.5387 6.97395C12.3209 7.40616 12.2486 7.83813 12.2486 8.34217C12.3209 8.77414 12.3935 9.1352 12.4661 9.49417C12.6123 10.4302 12.6123 11.4383 12.6827 12.3745C12.6827 13.6704 12.9729 14.5346 13.5532 14.8936C13.6977 14.9981 13.8658 15.0659 14.0427 15.091C14.2197 15.1161 14.4002 15.0978 14.5684 15.0377L14.7136 14.9656L17.0346 39.3754H16.962L6.08343 46.937C5.86588 46.5768 5.64832 46.2167 5.50336 45.9289L15.7299 39.0162L13.7717 15.9746C13.4815 15.9746 12.9729 15.9026 12.5387 15.5427C12.031 15.0386 11.7409 13.9587 11.8135 12.4463C11.8135 11.9423 11.7411 11.5103 11.7411 11.0063C11.6685 10.4302 11.6685 9.8543 11.5235 9.27818C11.4509 8.70207 11.3057 8.05411 11.4509 7.40616C11.5235 6.97395 11.6685 6.61312 12.0312 6.25393C12.3212 5.96587 12.539 5.82196 12.7565 5.74988L13.1916 5.89403C13.6991 6.11001 16.31 7.33455 17.2531 11.0784L24.7243 9.99821L24.4341 7.26201C24.4341 7.18994 25.2329 7.04603 25.3034 6.97395C25.5933 6.90211 25.9561 6.90212 26.2462 6.90212C26.6813 6.90212 27.1155 7.04603 27.5518 7.26201C28.2771 7.69398 28.7848 8.41424 29.2199 9.20611L50.3983 5.89403L68.4581 7.26201L66.0652 32.752ZM15.5124 12.3745L14.9321 12.5184C14.9321 12.5184 14.7871 13.1664 14.7145 13.5986C14.7145 13.6704 14.3518 13.5265 14.3518 13.5265C14.1342 13.4544 14.0616 13.3105 13.9167 13.1664C13.5541 12.5905 13.6265 11.8705 13.5541 11.2223C13.5541 10.7182 13.4815 10.1424 13.4089 9.63831C13.3363 9.13427 13.264 8.55815 13.264 8.48608C13.264 8.19802 13.8441 8.99012 14.0628 9.27911C14.4255 9.71108 14.7157 10.2151 14.9321 10.7192C15.0605 10.971 15.1579 11.2373 15.2222 11.5122C15.3672 11.7984 15.4398 12.0865 15.5124 12.3745Z" fill="black"/>
<path d="M28.6405 18.351H20.8799V18.7109C20.8799 20.7992 22.4756 22.5273 24.5788 22.6712C23.9987 22.8153 23.4184 22.8153 22.8381 22.7432C24.2163 23.1752 25.6668 23.0313 26.8998 22.2392C26.3197 22.9592 25.5219 23.5353 24.6514 23.8952C25.5942 23.7513 26.5373 23.2473 27.2626 22.5991C26.8998 23.3194 26.4638 23.9673 25.8844 24.5434C27.9152 23.2473 29.0326 20.9102 28.6708 18.5339L28.6405 18.351ZM26.3921 18.8548C26.4647 19.3589 26.1102 19.7848 25.5933 19.7911C25.0807 19.7971 24.6505 19.503 24.6505 18.998V18.8539L26.3921 18.8548ZM24.724 22.0951C22.9833 22.0951 21.5328 20.655 21.5328 18.8548H22.7658C22.6932 19.935 23.491 20.9431 24.5788 21.0151C25.6666 21.0872 26.6823 20.2951 26.7549 19.215V18.8548H27.9878C27.9896 19.2808 27.9065 19.703 27.7431 20.0969C27.5797 20.4909 27.3393 20.8488 27.0359 21.15C26.7325 21.4512 26.372 21.6899 25.9752 21.8521C25.5784 22.0143 25.1531 22.0968 24.724 22.0951Z" fill="black"/>
<path d="M25.5942 19.7911C26.1111 19.7848 26.4635 19.3589 26.393 18.8548H24.6523V18.999C24.6514 19.503 25.0816 19.7971 25.5942 19.7911Z" fill="white"/>
</g>
<defs>
<clipPath id="clip0_11_539">
<rect width="70" height="66.5854" fill="white"/>
</clipPath>
</defs>
</svg>
